<?xml version="1.0" encoding="UTF-8" standalone="no"?>
<!-- Created with Inkscape (http://www.inkscape.org/) -->

<svg
   xmlns:dc="http://purl.org/dc/elements/1.1/"
   xmlns:cc="http://creativecommons.org/ns#"
   xmlns:rdf="http://www.w3.org/1999/02/22-rdf-syntax-ns#"
   xmlns:svg="http://www.w3.org/2000/svg"
   xmlns="http://www.w3.org/2000/svg"
   xmlns:sodipodi="http://sodipodi.sourceforge.net/DTD/sodipodi-0.dtd"
   xmlns:inkscape="http://www.inkscape.org/namespaces/inkscape"
   width="100.15977"
   height="54.160358"
   id="svg2"
   version="1.1"
   inkscape:version="0.48.3.1 r9886"
   sodipodi:docname="szemem.svg">
  <defs
     id="defs4" />
  <sodipodi:namedview
     id="base"
     pagecolor="#ffffff"
     bordercolor="#666666"
     borderopacity="1.0"
     inkscape:pageopacity="0.0"
     inkscape:pageshadow="2"
     inkscape:zoom="1"
     inkscape:cx="50.079882"
     inkscape:cy="29.061786"
     inkscape:document-units="px"
     inkscape:current-layer="layer4"
     showgrid="false"
     inkscape:window-width="1920"
     inkscape:window-height="1021"
     inkscape:window-x="0"
     inkscape:window-y="27"
     inkscape:window-maximized="1"
     fit-margin-top="0"
     fit-margin-left="0"
     fit-margin-right="0"
     fit-margin-bottom="0" />
  <metadata
     id="metadata7">
    <rdf:RDF>
      <cc:Work
         rdf:about="">
        <dc:format>image/svg+xml</dc:format>
        <dc:type
           rdf:resource="http://purl.org/dc/dcmitype/StillImage" />
        <dc:title></dc:title>
      </cc:Work>
    </rdf:RDF>
  </metadata>
  <g
     inkscape:groupmode="layer"
     id="layer4"
     inkscape:label="Szemem"
     transform="translate(-318.41165,-315.83502)">
    <path
       inkscape:connector-curvature="0"
       id="path4473"
       d="m 355.12355,368.68359 c -0.2118,-0.6875 -0.65625,-2.4875 -0.98767,-4 -0.33142,-1.5125 -1.24348,-2.75 -2.02682,-2.75 -0.78333,0 -2.08181,-0.93882 -2.88551,-2.08626 -1.19688,-1.70877 -1.82852,-1.88971 -3.49097,-1 -2.62245,1.4035 -6.70606,1.38743 -8.98428,-0.0353 -1.27428,-0.79579 -3.16025,-0.83063 -6.49252,-0.11993 -3.52161,0.75109 -5.63316,0.66741 -8.44046,-0.3345 -2.05915,-0.7349 -3.06891,-1.36282 -2.24391,-1.39538 1.33333,-0.0526 1.33333,-0.16862 0,-1.04389 -0.94075,-0.61757 -1.12717,-1.26432 -0.5,-1.73469 1.37894,-1.03421 1.71984,-3.25 0.5,-3.25 -0.55,0 -1,-2.025 -1,-4.5 0,-2.475 0.45,-4.5 1,-4.5 0.55,0 1,-1.13912 1,-2.53139 0,-1.53417 0.68939,-2.74854 1.75,-3.08263 0.9625,-0.30319 3.48003,-1.41407 5.5945,-2.46862 2.11448,-1.05455 4.65022,-1.91736 5.63499,-1.91736 0.98477,0 2.48512,-1.06013 3.3341,-2.35585 1.12967,-1.72409 3.23879,-2.71624 7.86501,-3.69978 3.47677,-0.73916 7.06824,-1.36653 7.98104,-1.39415 0.91281,-0.0276 2.00031,-0.38772 2.41667,-0.80022 0.41636,-0.4125 1.56817,-0.75 2.55956,-0.75 2.03766,0 9.86413,-3.8531 9.86413,-4.85628 0,-0.35989 1.51581,-1.12878 3.36846,-1.70865 2.56551,-0.80299 4.29371,-0.71527 7.25,0.36801 2.30237,0.84366 8.11951,1.47818 14.29833,1.55962 6.96551,0.0918 10.54616,0.52555 10.80727,1.30914 0.26461,0.79405 2.09532,0.99588 5.67866,0.62604 6.1989,-0.63978 7.06649,0.37704 5.44157,6.37752 -1.07808,3.98111 -5.16124,8.22653 -7.97185,8.28864 -0.89515,0.0198 -2.16569,0.68437 -2.8234,1.47687 -0.99333,1.19689 -0.58609,1.55531 2.40465,2.11638 7.1566,1.34259 6.35457,8.44271 -0.95369,8.44271 -1.92003,0 -3.9106,0.79623 -5,2 -1.09668,1.21181 -3.07997,2 -5.03254,2 -1.77242,0 -3.78277,0.675 -4.46746,1.5 -0.68469,0.825 -1.81664,1.5 -2.51546,1.5 -0.69881,0 -1.55074,0.73014 -1.89319,1.62253 -0.5017,1.30742 -1.69206,1.53385 -6.12911,1.1659 -4.32489,-0.35866 -6.14549,-1.06885 -8.48437,-3.30963 -1.63783,-1.56914 -2.97787,-3.46418 -2.97787,-4.2112 0,-1.02313 -0.92518,-1.19129 -3.75,-0.68157 -5.26987,0.95089 -5.28206,0.97195 -3.13482,5.41623 l 1.9315,3.99774 8.54308,0 8.54308,0 -0.31642,2.75 c -0.22758,1.97786 -0.87798,2.75 -2.31642,2.75 -1.1,0 -2.82353,1.01679 -3.83008,2.25953 -1.00654,1.24274 -2.19305,2.03519 -2.63669,1.76101 -0.44364,-0.27419 -1.36271,0.17153 -2.04237,0.99047 -1.59336,1.91989 -13.85834,2.1229 -14.43872,0.23899 z m 15.69786,-28.73635 c 0.9625,-0.008 1.75,-0.46365 1.75,-1.01365 0,-1.55985 -4.40269,-1.1744 -6.55887,0.57422 -1.8735,1.51937 -1.85402,1.55469 0.55887,1.01365 1.375,-0.30831 3.2875,-0.56671 4.25,-0.57422 z m 44.75,-11.51365 c 0,-0.8667 0.59545,-1.20873 1.5,-0.86163 0.825,0.31659 1.5,0.70432 1.5,0.86163 0,0.15731 -0.675,0.54504 -1.5,0.86163 -0.90455,0.3471 -1.5,0.005 -1.5,-0.86163 z"
       style="fill:#f9f9f9" />
    <path
       inkscape:connector-curvature="0"
       id="path4471"
       d="m 357.01161,366.122 c 0.42926,-1.35247 -0.41406,-2.36747 -3.32751,-4.00492 -2.14636,-1.20632 -4.14768,-2.8323 -4.44737,-3.61328 -0.44237,-1.15279 -1.21895,-1.21309 -4.12735,-0.32048 -2.92186,0.89674 -4.2331,0.78921 -7.11096,-0.58315 -2.57598,-1.22839 -4.03697,-1.41051 -5.41202,-0.6746 -5.17433,2.76921 -12.83032,-0.28362 -12.1813,-4.85732 0.1846,-1.30093 -0.15246,-2.85343 -0.74903,-3.45 -1.37295,-1.37295 -1.45038,-7.02872 -0.0847,-6.18466 0.57498,0.35536 1.00624,-0.57586 1.01468,-2.19098 0.013,-2.49937 0.66242,-3.0582 5.89085,-5.06952 3.2319,-1.24327 6.55964,-1.99823 7.39498,-1.67768 0.97716,0.37497 1.75639,-0.16572 2.18499,-1.51614 1.00687,-3.17235 4.61546,-5.04327 12.69877,-6.58385 12.13264,-2.31233 13.16226,-2.63317 17.31573,-5.39578 6.06334,-4.03292 7.32275,-4.26314 13.40175,-2.44984 3.43386,1.02429 8.65807,1.61997 13.51254,1.54075 4.80402,-0.0784 8.47393,0.33531 9.33835,1.05271 0.78323,0.65002 3.33003,1.06465 5.65957,0.9214 5.79414,-0.35631 7.04786,1.28812 4.98528,6.53893 -1.61618,4.11439 -5.64985,7.33 -9.19479,7.33 -1.0938,0 -2.2303,0.62953 -2.52555,1.39895 -0.37835,0.98595 0.77095,1.72825 3.89301,2.5144 3.34437,0.84212 4.42984,1.59337 4.42984,3.06586 0,2.11735 -2.73591,4.02079 -5.77927,4.02079 -1.05092,0 -2.72524,0.9 -3.72073,2 -1.02457,1.13214 -3.07997,2 -4.73669,2 -1.88455,0 -4.5042,1.29263 -7.35677,3.63009 -3.90179,3.19723 -4.91016,3.5657 -8.45639,3.09005 -5.095,-0.68338 -8.91451,-3.16546 -10.22865,-6.64701 -0.98638,-2.61324 -1.17727,-2.67513 -5.12303,-1.66106 -2.25416,0.57933 -4.39461,1.47075 -4.75657,1.98094 -0.36195,0.51019 0.48535,2.65548 1.88289,4.7673 l 2.54098,3.83969 7.86712,0 c 7.28035,0 7.86711,0.15386 7.86711,2.06286 0,1.48626 -0.54573,1.97541 -1.95243,1.75 -1.07757,-0.17267 -2.6157,0.58331 -3.43268,1.68714 -1.18654,1.60316 -1.73171,1.75197 -2.74757,0.75 -1.77329,-1.74905 -2.55192,-1.56408 -3.15707,0.75 -0.44531,1.70288 -1.36402,2 -6.18402,2 -5.00968,0 -5.59485,-0.20843 -5.08603,-1.81159 z m 17.5598,-26.37029 7.5,-1.22856 -5.5,-0.73314 c -6.46779,-0.86214 -9.58198,-0.27963 -13,2.43163 l -2.5,1.98307 3,-0.61222 c 1.65,-0.33672 6.375,-1.16507 10.5,-1.84078 z"
       style="fill:#f3f3f3" />
    <path
       inkscape:connector-curvature="0"
       id="path4469"
       d="m 359.57141,364.93359 c 0,-1.1 -0.52379,-2 -1.16398,-2 -2.45725,0 -8.83602,-3.45096 -8.83602,-4.78035 0,-1.07588 -0.92354,-1.23941 -4.0329,-0.71409 -2.92353,0.49392 -4.70186,0.24302 -6.46481,-0.9121 -2.75139,-1.80279 -6.08051,-2.08493 -7.00229,-0.59346 -1.02819,1.66364 -7.06675,1.143 -8.69863,-0.75 -3.54105,-4.10766 -6.69647,-14.53927 -3.86943,-12.79206 0.51257,0.31678 1.07507,-0.60165 1.25,-2.04097 0.24446,-2.01139 1.24363,-2.96911 4.31806,-4.13895 2.2,-0.83712 5.35,-1.62042 7,-1.74067 2.06297,-0.15036 3.46657,-1.04293 4.49377,-2.85765 1.70034,-3.00394 4.00841,-4.06577 12.50623,-5.75348 8.47205,-1.6826 14.34163,-3.66874 19.17807,-6.48947 4.89248,-2.85341 6.28173,-2.94463 14.02314,-0.92072 3.80412,0.99454 7.71469,1.3011 11.36858,0.89122 4.50905,-0.50581 5.89829,-0.29632 7.29465,1.10004 1.20806,1.20806 2.61194,1.54743 4.68563,1.13269 4.97388,-0.99477 10.34542,2.76149 6.94993,4.86002 -0.55,0.33992 -1,1.43972 -1,2.44401 0,2.16665 -3.3003,4.52376 -7.68113,5.48595 -2.96523,0.65128 -5.08295,3.00642 -3.5252,3.92042 0.38848,0.22793 2.19924,0.73478 4.0239,1.12632 5.48031,1.17598 5.23553,5.43478 -0.31757,5.52526 -1.1,0.0179 -3.0799,1.17077 -4.39977,2.56188 -1.85397,1.95402 -3.02588,2.39176 -5.15263,1.92465 -2.05324,-0.45097 -3.10092,-0.10768 -4.12247,1.35078 -0.75329,1.07547 -3.16963,2.89362 -5.36965,4.04034 -3.33935,1.74056 -4.60512,1.91786 -7.66348,1.0734 -3.24377,-0.89565 -7.98146,-5.0726 -8.94635,-7.88749 -0.34455,-1.00514 -7.96934,0.72484 -9.37059,2.12608 -1.02009,1.02009 0.25939,4.04598 2.92608,6.92005 2.15557,2.32318 2.98517,2.55764 7.51104,2.12277 4.92328,-0.47307 5.08782,-0.40582 5.08782,2.07933 0,3.1381 -1.57334,4.28524 -3.58619,2.61472 -1.11696,-0.927 -1.7873,-0.95498 -2.6324,-0.10988 -0.79103,0.79103 -1.51296,0.81916 -2.38788,0.0931 -0.9157,-0.75996 -1.55217,-0.48374 -2.35897,1.02379 -1.41158,2.63756 -4.03456,2.67954 -4.03456,0.0646 z m 11.4398,-24.11639 c 17.74573,-3.26905 17.33646,-3.15511 13.97291,-3.88996 -1.69801,-0.37097 -3.63022,-1.01005 -4.29381,-1.42016 -0.66358,-0.41012 -1.82322,-0.23385 -2.57697,0.39171 -0.75375,0.62556 -2.42154,1.04431 -3.70619,0.93056 -4.34861,-0.38504 -6.32523,0.10801 -10.33574,2.57815 -3.57094,2.19941 -3.73829,2.46702 -1.5602,2.49488 1.3419,0.0172 5.1669,-0.47116 8.5,-1.08518 z"
       style="fill:#ebebeb" />
    <path
       inkscape:connector-curvature="0"
       id="path4467"
       d="m 360.30207,363.67407 c -0.26583,-0.69274 -2.60879,-1.82799 -5.20657,-2.5228 -3.06774,-0.82049 -4.89237,-1.90999 -5.20576,-3.10839 -0.3994,-1.52729 -1.2072,-1.76343 -4.68975,-1.37089 -3.07727,0.34685 -4.56528,0.0428 -5.54035,-1.13209 -1.57972,-1.90345 -3.33186,-2.00927 -7.61626,-0.46001 -4.67786,1.69153 -8.10386,0.39708 -10.97136,-4.14533 -2.18388,-3.45949 -3.66195,-10.49564 -1.81729,-8.65098 0.37582,0.37582 1.2541,-0.67418 1.95173,-2.33334 0.76101,-1.80993 2.00775,-3.01665 3.11668,-3.01665 1.01655,0 2.34327,-0.495 2.94827,-1.1 0.605,-0.605 2.66827,-1.1 4.58505,-1.1 2.68844,0 3.72999,-0.53759 4.55664,-2.3519 1.37642,-3.02091 5.39364,-5.07206 11.67148,-5.95934 6.9644,-0.98431 14.04054,-3.32907 20.48683,-6.78856 l 5.5,-2.95165 7,1.82195 c 3.85,1.00207 9.3867,1.72571 12.30377,1.60807 3.64135,-0.14684 5.77958,0.26192 6.82177,1.30412 1.09632,1.09631 2.6077,1.34374 5.44081,0.89071 2.52354,-0.40353 4.4598,-0.18162 5.42823,0.6221 2.22019,1.84259 1.83556,3.0045 -0.99458,3.0045 -1.375,0 -2.5,0.45 -2.5,1 0,0.55 0.675,1 1.5,1 2.2648,0 1.79854,2.57437 -0.77121,4.25814 -1.24917,0.81848 -4.06167,1.72247 -6.25,2.00886 -2.18834,0.28639 -5.96533,1.09201 -8.39332,1.79026 -3.45079,0.99238 -5.37278,1.01325 -8.8039,0.0956 -6.30359,-1.68596 -16.45055,0.0848 -22.28157,3.88832 -5.14288,3.35467 -4.64903,3.49808 5.29216,1.53689 11.37215,-2.2435 27.20012,-3.84171 30.86127,-3.11618 4.70588,0.93256 8.84657,2.62893 8.84657,3.62428 0,1.1565 -3.24689,2.73516 -4.61079,2.2418 -0.61094,-0.22099 -1.88843,0.78502 -2.83888,2.23558 -1.39655,2.13141 -2.31612,2.55108 -4.79323,2.18752 -2.51764,-0.36951 -3.77368,0.23774 -7.03171,3.39955 -3.12543,3.03313 -4.73619,3.84862 -7.59597,3.84567 -4.52017,-0.005 -9.86156,-3.16154 -11.16938,-6.60136 -0.84163,-2.21364 -1.40024,-2.50238 -3.72507,-1.92541 -3.97629,0.98684 -7.53105,2.85756 -7.96481,4.19155 -0.20763,0.63856 0.45692,1.98856 1.47678,3 3.51656,3.48748 5.10888,6.84521 4.10059,8.64692 -1.12113,2.00336 -2.44366,2.18688 -3.11688,0.43252 z m -3.73066,-7.74048 c 0,-0.55 -0.45,-1 -1,-1 -0.55,0 -1,0.45 -1,1 0,0.55 0.45,1 1,1 0.55,0 1,-0.45 1,-1 z m 14.59064,7.14667 c -0.32594,-0.5274 -1.49218,-0.72367 -2.59164,-0.43616 -1.38989,0.36347 -1.999,0.0302 -1.999,-1.09388 0,-1.22425 0.98865,-1.61663 4.07332,-1.61663 3.26486,0 4.00915,0.33089 3.75,1.66713 -0.37814,1.94981 -2.37671,2.86451 -3.23268,1.47954 z"
       style="fill:#e3e3e3" />
    <path
       inkscape:connector-curvature="0"
       id="path4465"
       d="m 360.99941,362.60655 c -0.35066,-0.91381 -1.03116,-1.41822 -1.51221,-1.12091 -1.84738,1.14174 -8.95495,-1.85988 -9.49451,-4.00966 -0.43657,-1.73946 -1.13272,-2.05773 -3.81571,-1.74451 -2.09372,0.24443 -3.85748,-0.19264 -4.87221,-1.20738 -1.98151,-1.98151 -4.47863,-2.01271 -9.02585,-0.11276 -4.65749,1.94603 -9.11033,0.49266 -10.90371,-3.55886 -0.71061,-1.60539 -1.63217,-2.91888 -2.04791,-2.91888 -0.41574,0 -0.75589,-1.37656 -0.75589,-3.05902 0,-1.68246 0.40616,-2.80799 0.90259,-2.50118 0.49642,0.3068 1.37301,-0.79164 1.94798,-2.44099 0.78445,-2.25027 1.66768,-2.99881 3.53839,-2.99881 1.37115,0 2.79785,-0.49325 3.17044,-1.09612 0.3726,-0.60286 2.02374,-0.89852 3.66921,-0.65702 2.48535,0.36477 3.30139,-0.07 4.82092,-2.56869 2.09317,-3.44195 5.78138,-5.25222 12.65242,-6.21012 6.28188,-0.87576 12.4872,-2.93966 19.43763,-6.46498 l 5.63957,-2.86045 7.36043,1.93454 c 4.21692,1.10834 8.8552,1.704 10.86042,1.39472 2.40196,-0.37047 4.73038,0.0919 7.42185,1.47396 2.8438,1.46023 4.27376,1.72175 5.20202,0.95136 1.41117,-1.17117 5.37613,-0.30814 5.37613,1.17019 0,0.83057 -2.2002,1.37468 -4.25,1.05103 -1.57487,-0.24866 -0.65396,1.83544 1.46767,3.32149 2.06809,1.44854 2.10547,1.66552 0.55427,3.21672 -2.29341,2.29342 -10.98914,3.56351 -25.77194,3.76424 -12.96764,0.17609 -16.11095,0.97325 -22,5.57931 -3.15522,2.46782 -1.88209,2.53425 8.66203,0.45193 11.30483,-2.23255 29.08099,-3.02205 33.70242,-1.49685 4.24543,1.40112 4.34509,3.38451 0.19457,3.87215 -1.71439,0.20142 -2.97688,1.05448 -3.28085,2.21688 -0.62782,2.40077 -3.62279,3.37683 -6.17325,2.01186 -1.62048,-0.86725 -2.08548,-0.69275 -2.61706,0.98211 -0.85607,2.69724 -7.73304,6.9627 -11.21799,6.958 -3.90214,-0.005 -8.70329,-3.21421 -10.19415,-6.81345 -1.07062,-2.5847 -1.59596,-2.92069 -3.42031,-2.18748 -1.18547,0.47644 -3.36292,1.12344 -4.83876,1.43779 -1.59869,0.34051 -2.97122,1.47852 -3.39552,2.81536 -0.39169,1.23412 -1.43347,2.77128 -2.31507,3.41592 -0.8816,0.64464 -1.277,1.498 -0.87865,1.89634 0.39834,0.39834 1.39042,0.1714 2.20462,-0.50433 1.87416,-1.55541 3.03767,-0.82578 5.02008,3.14804 1.03391,2.07254 1.23963,3.50381 0.5961,4.14734 -0.64353,0.64353 -1.20267,0.40926 -1.62021,-0.67883 z m 6.16856,-0.51673 c -0.34605,-0.55992 -0.1419,-1.31919 0.45366,-1.68727 1.53748,-0.95022 2.52947,0.35135 1.24598,1.63484 -0.71818,0.71818 -1.27753,0.73543 -1.69964,0.0524 z m 4.09729,0.20429 c -0.79893,-0.79893 0.10419,-2.36052 1.36517,-2.36052 0.51754,0 0.94098,0.675 0.94098,1.5 0,1.54641 -1.17996,1.9867 -2.30615,0.86052 z"
       style="fill:#dbdbdb" />
    <path
       inkscape:connector-curvature="0"
       id="path4463"
       d="m 371.57141,361.93359 c 0,-0.55 0.45,-1 1,-1 0.55,0 1,0.45 1,1 0,0.55 -0.45,1 -1,1 -0.55,0 -1,-0.45 -1,-1 z m -18,-1.86952 c -1.56562,-0.44619 -2.62374,-1.571 -2.83109,-3.00953 -0.27214,-1.88808 -0.76568,-2.18799 -2.77196,-1.68444 -3.19514,0.80193 -4.28011,-1.80315 -1.86324,-4.47376 2.12573,-2.3489 0.53384,-2.62037 -3.37942,-0.57629 -4.54376,2.37342 -14.24499,4.80759 -16.70234,4.19084 -1.29009,-0.3238 -3.14157,-1.93615 -4.11439,-3.58301 -0.97283,-1.64686 -2.12175,-2.99429 -2.55317,-2.99429 -0.43141,0 -0.78439,-1.125 -0.78439,-2.5 0,-1.375 0.46114,-2.5 1.02475,-2.5 0.56361,0 1.45248,-1.125 1.97525,-2.5 0.52277,-1.375 1.65247,-2.5 2.51043,-2.5 0.85797,0 2.66563,-0.72448 4.01703,-1.60995 1.35141,-0.88548 3.19624,-1.32632 4.09964,-0.97965 1.11512,0.42791 2.80339,-0.62313 5.25772,-3.27322 2.98851,-3.22686 4.65524,-4.10156 9.61518,-5.04603 10.95693,-2.08642 15.09514,-3.43082 23.89918,-7.76426 3.19285,-1.57155 3.8617,-1.56419 11.01871,0.12126 4.30327,1.0134 8.97377,1.52352 10.73108,1.17206 3.59236,-0.71848 8.55275,1.89521 12.96166,6.82964 2.98301,3.33856 2.38931,5.55704 -1.48308,5.54175 -1.17015,-0.005 -5.15298,0.76694 -8.85073,1.71458 -5.4809,1.40461 -7.51343,1.51531 -11,0.5991 -7.20372,-1.89302 -15.39713,0.1164 -25.27682,6.19911 -4.86279,2.99391 -4.64581,3.00522 8.5,0.44313 13.64628,-2.65963 28.22955,-3.53693 33.75,-2.03032 4.68023,1.2773 5.69065,3.0828 1.72525,3.0828 -1.74345,0 -2.80655,0.74118 -3.43538,2.39512 -1.10295,2.901 -2.8924,3.66883 -5.46071,2.34314 -1.78707,-0.92244 -3.36392,0.11503 -4.7931,3.15355 -0.15733,0.3345 -1.79892,1.6714 -3.64798,2.97087 -2.58769,1.81857 -4.17518,2.23071 -6.89339,1.7896 -3.83304,-0.62202 -7.96322,-3.87506 -9.29519,-7.32115 -0.80518,-2.08316 -1.0197,-2.11427 -5.42918,-0.78721 -5.65079,1.70064 -6.52032,2.21981 -6.52032,3.89312 0,0.72546 -0.89733,1.9364 -1.99407,2.69099 -1.3322,0.91659 -1.7086,1.81746 -1.13402,2.71414 0.71954,1.12289 1.21368,1.12289 3.02458,0 1.84174,-1.14201 2.30669,-1.11847 3.11777,0.15783 0.52427,0.825 0.81334,1.95 0.64237,2.5 -0.38786,1.24766 -4.34699,1.57367 -7.65663,0.63048 z m 52,-36.13048 c 0,-0.55 0.675,-1 1.5,-1 0.825,0 1.5,0.45 1.5,1 0,0.55 -0.675,1 -1.5,1 -0.825,0 -1.5,-0.45 -1.5,-1 z"
       style="fill:#d3d3d3" />
    <path
       inkscape:connector-curvature="0"
       id="path4461"
       d="m 354.07141,360.06053 c -2.33342,-0.49502 -3.07036,-1.24693 -3.31665,-3.38401 -0.27223,-2.36223 -0.65793,-2.66192 -2.75,-2.13685 -2.68926,0.67496 -3.10552,-0.48161 -1.35233,-3.75747 1.5035,-2.80931 0.5525,-3.31833 -2.76179,-1.47825 -3.81712,2.11926 -12.96358,4.62964 -16.86784,4.62964 -2.60585,0 -3.66479,-0.72409 -5.8185,-3.97856 -2.72426,-4.11664 -3.38956,-7.02144 -1.60814,-7.02144 0.56361,0 1.45248,-1.125 1.97525,-2.5 0.56895,-1.49645 1.73958,-2.5 2.91623,-2.5 1.08116,0 2.24385,-0.45 2.58377,-1 0.33992,-0.55 2.31543,-1 4.39004,-1 3.03321,0 4.043,-0.50637 5.15562,-2.58531 1.68302,-3.14477 4.72106,-4.76449 11.95434,-6.37343 9.56134,-2.1268 13.32844,-3.32994 19.81662,-6.32909 3.69074,-1.70604 7.22428,-2.7013 8.5,-2.39411 1.20086,0.28915 4.72115,1.16524 7.82286,1.94686 3.10172,0.78163 6.9493,1.22889 8.55018,0.99394 3.55762,-0.52215 9.42248,2.71363 11.30962,6.23979 0.73627,1.37574 1.76774,2.50135 2.29214,2.50135 0.52441,0 0.39327,0.675 -0.29142,1.5 -0.68469,0.825 -2.29283,1.5 -3.57366,1.5 -1.28081,0 -4.88047,0.66464 -7.99922,1.47697 -4.27044,1.11231 -6.76275,1.23218 -10.09449,0.48552 -7.27215,-1.62972 -15.30065,0.22557 -24.16966,5.58533 -4.21463,2.54701 -6.76297,4.37445 -5.66297,4.06099 3.73588,-1.06462 17.96427,-3.4918 27.53879,-4.69777 10.19222,-1.28378 17.52157,-0.7145 20.57619,1.59818 1.78421,1.35085 1.74167,1.42887 -0.79543,1.45898 -2.00631,0.0238 -2.76082,0.59768 -3,2.2818 -0.26615,1.87399 -0.94278,2.25 -4.04886,2.25 -2.69156,0 -4.15225,0.60328 -5.24925,2.16798 -2.63337,3.7561 -8.15917,6.5705 -11.47197,5.84289 -3.81882,-0.83876 -7.94703,-4.11124 -9.13805,-7.24385 -0.69949,-1.83979 -1.38235,-2.28066 -2.67532,-1.72725 -0.95485,0.4087 -2.99915,0.95927 -4.54287,1.22349 -1.57926,0.2703 -3.54128,1.62981 -4.48625,3.10857 -0.92371,1.44549 -2.36066,3.16038 -3.19323,3.81085 -1.22775,0.95923 -1.27287,1.42684 -0.23879,2.47496 1.02413,1.03805 1.66798,1.04683 3.27269,0.0447 1.67102,-1.04357 2.09963,-0.98208 2.62076,0.37596 0.54268,1.41419 -1.22018,3.58644 -2.66841,3.2881 -0.275,-0.0566 -1.85,-0.3894 -3.5,-0.73944 z"
       style="fill:#cbcbcb" />
    <path
       inkscape:connector-curvature="0"
       id="path4459"
       d="m 351.64963,358.52784 c -0.63162,-0.76105 -1.0201,-1.9936 -0.86331,-2.73899 0.16005,-0.76086 -0.59209,-1.39997 -1.71491,-1.4572 -1.1,-0.0561 -2.38195,-0.16857 -2.84878,-0.25 -0.46682,-0.0814 0.0805,-1.72306 1.21628,-3.64806 2.31434,-3.92252 1.95648,-4.20427 -2.3675,-1.86397 -3.23457,1.75067 -15.76286,5.36397 -18.59834,5.36397 -1.89526,0 -7.90166,-6.95788 -7.90166,-9.15336 0,-0.75105 0.9,-1.92761 2,-2.61457 1.1,-0.68696 2,-1.92021 2,-2.74054 0,-0.91468 0.94405,-1.49153 2.44098,-1.49153 1.34254,0 2.7191,-0.45 3.05902,-1 0.33992,-0.55 2.14103,-1 4.00248,-1 2.70661,0 3.74251,-0.60615 5.17227,-3.02653 1.41636,-2.39772 3.16459,-3.43656 8.41434,-5 3.6446,-1.08541 7.22107,-1.97347 7.94772,-1.97347 2.44946,0 12.25436,-3.5345 18.46319,-6.65566 2.7373,-1.37604 3.65,-1.32718 10.42282,0.55796 4.30287,1.19766 8.92638,1.85522 11,1.56442 2.81765,-0.39512 4.21416,0.0318 6.57718,2.01086 2.84705,2.38439 2.88529,2.51274 0.75,2.51745 -1.2375,0.003 -2.25,0.45497 -2.25,1.00497 0,0.55 1.35,1 3,1 4.09498,0 4.29599,3.67496 0.25,4.57076 -1.5125,0.33487 -4.1,0.99286 -5.75,1.46218 -1.65,0.46933 -7.97707,0.80104 -14.06016,0.73714 -11.9142,-0.12516 -11.01374,-0.38807 -24.41565,7.12875 -3.33293,1.86936 -5.92294,3.53575 -5.7556,3.70309 0.16735,0.16735 2.53787,-0.29227 5.26784,-1.02136 6.4881,-1.73279 14.71997,-3.18109 26.60917,-4.6816 7.86849,-0.99306 10.52701,-0.97056 14.4296,0.1221 4.24416,1.18828 4.54399,1.44654 2.65701,2.28853 -1.16986,0.522 -2.26327,1.90339 -2.42982,3.06975 -0.25388,1.77794 -0.90881,2.08509 -4.0526,1.90056 -2.675,-0.15701 -3.74979,0.18669 -3.74979,1.19911 0,2.37316 -6.88444,6.92099 -10.47689,6.92099 -4.06261,0 -8.25085,-2.65877 -9.77113,-6.20289 -0.63632,-1.48341 -1.24701,-2.8408 -1.3571,-3.01642 -0.11009,-0.17562 -2.15648,0.23317 -4.54752,0.90843 -5.23209,1.47759 -11.20531,7.20773 -10.34361,9.92268 0.73659,2.3208 -0.91727,3.3998 -2.42553,1.58245 z m 5.13948,0.25125 c 0.24642,-0.74002 1.25007,-1.50098 2.23033,-1.691 1.14002,-0.221 1.62085,0.13937 1.33427,1 -0.24642,0.74002 -1.25007,1.50098 -2.23033,1.691 -1.14002,0.221 -1.62085,-0.13937 -1.33427,-1 z"
       style="fill:#c3c3c3" />
    <path
       inkscape:connector-curvature="0"
       id="path4457"
       d="m 357.57141,358.99261 c 0,-0.51754 0.45,-1.2191 1,-1.55902 0.55,-0.33992 1,0.0835 1,0.94098 0,0.85746 -0.45,1.55902 -1,1.55902 -0.55,0 -1,-0.42344 -1,-0.94098 z m -6.11515,-0.80902 c -0.0633,-0.4125 -0.0351,-1.5375 0.0629,-2.5 0.12793,-1.25775 -0.54289,-1.75 -2.38485,-1.75 -1.40957,0 -2.56286,-0.41547 -2.56286,-0.92328 0,-2.22855 5.23623,-6.83092 9.08294,-7.98342 9.7363,-2.91707 34.18925,-6.07081 39.77489,-5.12984 3.33069,0.56109 3.61498,0.86684 3.32429,3.57505 -0.43948,4.09435 -1.6308,5.03372 -4.64318,3.66118 -2.2853,-1.04125 -2.65511,-0.87571 -4.04406,1.8102 -3.31296,6.40658 -12.6096,8.02924 -17.5718,3.06703 -1.6077,-1.60769 -2.92308,-3.63269 -2.92308,-4.5 0,-1.88613 -0.3104,-1.90252 -5.66825,-0.29932 -5.35052,1.60101 -11.49569,7.67807 -10.16627,10.05361 0.69519,1.24224 0.5378,1.66879 -0.61579,1.66879 -0.85233,0 -1.60151,-0.3375 -1.66484,-0.75 z m -29.3132,-8 c -4.00081,-4.22109 -4.52628,-6.81224 -1.57165,-7.75 1.1,-0.34913 2,-1.50445 2,-2.56739 0,-1.38232 0.69504,-1.93261 2.44098,-1.93261 1.34254,0 2.74712,-0.49534 3.12128,-1.10074 0.38331,-0.62021 1.9178,-0.85325 3.515,-0.53381 2.33661,0.46732 3.2077,0.0431 4.95755,-2.41434 2.60029,-3.65177 6.37567,-5.68993 12.11022,-6.53778 5.60174,-0.82822 18.40398,-5.07211 22.65002,-7.50841 3.24172,-1.86003 3.41713,-1.85791 10.83865,0.13091 4.52983,1.2139 8.83222,1.77979 10.76908,1.41643 2.28618,-0.42889 3.60648,-0.14603 4.5338,0.97132 0.71957,0.86703 1.92821,1.57642 2.68586,1.57642 0.75766,0 1.37756,0.45 1.37756,1 0,0.55 -0.92656,1 -2.05902,1 -1.13246,0 -1.7809,0.45 -1.44098,1 0.33992,0.55 1.71648,1 3.05902,1 1.71692,0 2.44098,0.55416 2.44098,1.86822 0,3.20043 -10.10156,5.38546 -21.27429,4.60176 -9.7242,-0.6821 -13.68184,0.24134 -19.868,4.63581 -7.83211,5.56371 -30.45243,14.89421 -36.10862,14.89421 -0.34272,0 -2.22257,-1.6875 -4.17744,-3.75 z"
       style="fill:#bbbbbb" />
    <path
       inkscape:connector-curvature="0"
       id="path4455"
       d="m 351.57141,357.37457 c 0,-0.85746 0.45,-1.2809 1,-0.94098 0.55,0.33992 1,1.04148 1,1.55902 0,0.51754 -0.45,0.94098 -1,0.94098 -0.55,0 -1,-0.70156 -1,-1.55902 z m 22.38065,-4.35057 c -1.71565,-1.04616 -3.58565,-3.23972 -4.15556,-4.87457 l -1.0362,-2.97245 -5.24774,1.77653 c -2.88626,0.9771 -5.69512,2.60983 -6.24192,3.62831 -0.54681,1.01847 -1.17867,2.06512 -1.40415,2.32587 -0.7311,0.84551 -8.29508,0.60552 -8.29508,-0.26318 0,-2.023 2.29722,-4.81326 5.19757,-6.31309 5.63006,-2.91141 29.71469,-6.70217 39.40536,-6.20212 5.67732,0.29295 5.90937,0.41204 6.22715,3.19578 0.38974,3.41423 -1.42951,4.89325 -4.19703,3.41212 -1.56148,-0.83568 -2.25287,-0.67645 -3.30389,0.76091 -0.73104,0.99976 -1.32916,2.13728 -1.32916,2.52783 0,1.3469 -7.121,4.90764 -9.80716,4.90391 -1.48106,-0.002 -4.09655,-0.85969 -5.81219,-1.90585 z m -52.13065,-3.31876 c -3.44867,-3.57268 -4.26016,-6.77165 -1.71778,-6.77165 0.84273,0 1.88434,-0.95185 2.3147,-2.11521 0.86204,-2.33032 7.62372,-5.1617 10.32073,-4.32169 1.09151,0.33996 2.56107,-0.65195 4.25374,-2.87115 2.44243,-3.20219 9.9496,-6.69195 14.39572,-6.69195 2.18449,0 19.25644,-5.98833 21.52715,-7.55108 1.52188,-1.0474 3.09507,-0.92108 9,0.72265 4.1598,1.15794 8.57621,1.76497 10.54849,1.44987 4.36069,-0.69667 8.9852,2.31806 6.25932,4.08048 -1.45137,0.93838 -1.31798,1.2231 1.09793,2.34363 7.61016,3.52968 -0.83486,6.5653 -17.09551,6.1451 l -11.3455,-0.29318 -9.6545,5.47566 c -15.28571,8.66946 -23.08846,11.85615 -32.15449,13.13207 -4.17245,0.58722 -4.73656,0.38825 -7.75,-2.73355 z"
       style="fill:#b3b3b3" />
    <path
       inkscape:connector-curvature="0"
       id="path4453"
       d="m 374.74679,353.6798 c -1.27855,-0.61514 -3.16876,-2.77308 -4.20048,-4.79542 l -1.87586,-3.67699 -4.93071,1.66922 c -2.71189,0.91806 -5.99668,2.89754 -7.29952,4.39883 -1.99514,2.29904 -2.88149,2.6254 -5.61881,2.06889 -3.91373,-0.79568 -4.05527,-1.75994 -0.71299,-4.85746 4.26393,-3.95167 23.06575,-7.92001 37.90284,-7.99981 l 9.93985,-0.0535 10e-4,3 c 10e-4,2.71846 -0.30375,3 -3.24985,3 -2.41044,0 -3.65092,0.65746 -4.79683,2.54234 -3.11383,5.12185 -9.9082,7.23016 -15.15901,4.70387 z m -52.92538,-3.98566 c -3.44412,-3.5562 -4.26185,-6.76055 -1.72525,-6.76055 0.83861,0 1.93125,-1.06918 2.42808,-2.37595 0.88928,-2.33898 4.52191,-3.70881 9.73733,-3.67187 1.22109,0.009 3.2122,-1.25381 4.5,-2.85319 2.8755,-3.57123 7.2972,-5.85104 12.95487,-6.67946 4.28331,-0.62718 11.42542,-2.63776 15.35497,-4.32259 10.92015,-4.6821 9.96638,-4.53823 17.16589,-2.58941 3.6715,0.99383 8.48452,1.73608 10.69559,1.64944 4.28234,-0.1678 6.23784,1.41596 4.43319,3.59044 -0.84441,1.01745 -0.37749,1.58379 2.06631,2.50622 3.98874,1.50558 3.55409,2.88668 -1.43751,4.56761 -3.89969,1.31323 -6.68282,1.49727 -19.75013,1.30606 -7.27505,-0.10646 -8.66655,0.38674 -20.67334,7.32731 -7.99395,4.62094 -16.68496,8.54539 -18.92443,8.54539 -0.92156,0 -2.10307,0.40418 -2.62557,0.89818 -0.5225,0.494 -3.2,1.19517 -5.95,1.55816 -4.73862,0.62548 -5.1699,0.48456 -8.25,-2.69579 z"
       style="fill:#ababab" />
    <path
       inkscape:connector-curvature="0"
       id="path4451"
       d="m 372.97141,351.53359 c -1.87,-1.87 -3.4,-4.12 -3.4,-5 0,-1.68441 -2.50035,-2.21747 -3.42017,-0.72916 -0.29602,0.47896 -2.01008,1.15773 -3.80902,1.50839 -1.81751,0.35427 -4.38162,1.94235 -5.77081,3.57415 -1.99273,2.34074 -3.058,2.82266 -5.25,2.37504 -4.36818,-0.89202 -3.0487,-4.10801 2.9596,-7.21349 4.24543,-2.1943 22.87189,-5.29165 32.7904,-5.45263 l 10,-0.1623 0.32268,3.37492 c 0.32083,3.35565 0.30271,3.37118 -3.17283,2.71917 -2.95223,-0.55384 -3.59571,-0.34003 -4.14028,1.37574 -0.99985,3.15028 -6.76931,7.03017 -10.45396,7.03017 -2.36912,0 -4.18141,-0.9258 -6.65561,-3.4 z m -50.65,-2.17976 c -3.86808,-3.65786 -4.8513,-6.42024 -2.28518,-6.42024 0.80565,0 1.94648,-0.9 2.53518,-2 0.5887,-1.1 1.92798,-2 2.97617,-2 1.04819,0 2.18391,-0.45 2.52383,-1 0.33992,-0.55 2.05398,-1.00129 3.80902,-1.00288 2.41678,-0.002 3.66941,-0.71697 5.16293,-2.94615 1.992,-2.97319 10.54897,-7.05097 14.79604,-7.05097 3.02686,0 13.85762,-3.56258 20.42273,-6.71768 2.9276,-1.40696 3.83471,-1.367 11,0.48459 4.2951,1.1099 9.15928,1.95389 10.80928,1.87554 2.54276,-0.12074 2.96418,0.19774 2.76497,2.08961 -0.16949,1.6096 0.62946,2.67911 2.8649,3.8351 1.90636,0.98581 2.74261,1.96036 2.1719,2.53107 -1.76741,1.76741 -14.2002,3.79129 -17.49148,2.84736 -5.66902,-1.62585 -17.3856,0.83527 -21.81029,4.58135 -4.77041,4.03879 -24.90495,12.60943 -30.5,12.9829 -1.1,0.0734 -2.9,0.4312 -4,0.79505 -1.46405,0.48426 -3.0049,-0.28875 -5.75,-2.88465 z"
       style="fill:#a3a3a3" />
    <path
       inkscape:connector-curvature="0"
       id="path4449"
       d="m 376.57141,354.22415 c -2.65194,-0.9751 -5.12845,-3.66223 -6.58255,-7.14238 -0.7796,-1.86584 -1.41745,-3.54513 -1.41745,-3.73176 0,-0.9182 8.52009,-2.42084 17.13996,-3.02287 9.08847,-0.63476 9.70347,-0.55462 10.75,1.40084 2.13265,3.98488 1.45519,5.36099 -2.29302,4.65782 -2.84063,-0.53291 -3.5082,-0.30716 -4.03921,1.3659 -1.46432,4.61368 -8.92557,8.17567 -13.55773,6.47245 z m -26.30534,-1.99054 c -4.36589,-1.13173 1.68633,-5.95378 9.85637,-7.85297 3.18993,-0.74152 6.19277,-1.10539 6.67298,-0.80861 1.50402,0.92954 -1.35028,3.36156 -3.94524,3.36156 -1.46207,0 -3.62418,1.22876 -5.27877,3 -2.75086,2.94481 -3.68425,3.23868 -7.30534,2.30002 z m -28.44466,-3.53947 c -3.75331,-3.87546 -4.13173,-5.76055 -1.15638,-5.76055 1.25262,0 2.30371,-0.8034 2.61663,-2 0.28766,-1.1 1.34397,-2 2.34736,-2 1.0034,0 2.10247,-0.45 2.44239,-1 0.33992,-0.55 1.9717,-1 3.62617,-1 2.12007,0 3.94777,-0.99539 6.19098,-3.3717 3.06199,-3.24367 6.26754,-4.55184 19.18285,-7.82844 4.66911,-1.18454 10.72949,-3.37665 15.06124,-5.44781 2.75527,-1.31739 3.75477,-1.26818 10,0.49228 3.81632,1.07578 7.68074,2.25658 8.58761,2.62399 0.90687,0.36742 1.94592,0.18735 2.30902,-0.40015 1.12537,-1.82088 3.69441,-1.22499 3.35505,0.77821 -0.36749,2.16916 1.83861,5.15362 3.80952,5.15362 0.75766,0 1.37756,0.63012 1.37756,1.40026 0,2.14455 -8.1793,3.52349 -20.10955,3.39024 -9.94858,-0.11111 -10.91422,0.0584 -15.5,2.72082 -12.94404,7.51508 -23.17565,12.4285 -25.94045,12.45711 -1.6775,0.0174 -3.4775,0.43575 -4,0.92975 -0.5225,0.494 -3.2,1.19517 -5.95,1.55816 -4.73862,0.62548 -5.1699,0.48456 -8.25,-2.69579 z"
       style="fill:#9b9b9b" />
    <path
       inkscape:connector-curvature="0"
       id="path4447"
       d="m 374.84764,352.9605 c -2.86298,-1.74563 -7.00189,-8.63459 -5.86858,-9.76789 1.72482,-1.72483 24.2932,-3.92674 26.20757,-2.55698 1.65292,1.1827 2.61998,5.03456 1.44612,5.76005 -0.561,0.34672 -1.91384,0.15203 -3.00631,-0.43264 -1.69114,-0.90507 -2.2107,-0.62909 -3.49642,1.85721 -1.66619,3.22206 -7.23915,7.11544 -10.17664,7.1096 -1.03509,-0.002 -3.33267,-0.88826 -5.10574,-1.96935 z m -24.02623,-0.68919 c -4.58015,-1.84813 5.78383,-8.33728 13.25,-8.29615 3.73344,0.0206 3.87064,0.11988 2.05887,1.49023 -1.06762,0.80751 -2.94012,1.4682 -4.16111,1.4682 -1.23901,0 -3.33543,1.32564 -4.74431,3 -2.4449,2.9056 -3.78429,3.39457 -6.40345,2.33772 z m -28.66067,-3.39344 c -1.97413,-1.7333 -3.58933,-3.85485 -3.58933,-4.71454 0,-0.85969 0.28417,-1.27891 0.63148,-0.93159 0.98891,0.9889 4.36852,-1.20305 4.36852,-2.83333 0,-0.88636 0.96395,-1.46482 2.44098,-1.46482 1.34254,0 2.74529,-0.49238 3.11722,-1.09417 0.37193,-0.60179 1.77711,-0.88372 3.12262,-0.62651 1.85582,0.35476 2.97417,-0.2471 4.63278,-2.4932 2.34299,-3.17291 8.64986,-6.5054 13.93643,-7.3639 4.68922,-0.76149 10.76833,-2.47186 14.4011,-4.05177 1.73312,-0.75375 3.66145,-1.37045 4.28518,-1.37045 0.62373,0 2.13072,-0.65008 3.34887,-1.44461 1.94985,-1.27178 2.99246,-1.23368 8.71482,0.31848 3.575,0.9697 7.57129,2.40727 8.88065,3.19461 1.85382,1.11472 2.48084,1.15489 2.83334,0.18152 0.71028,-1.96134 2.28601,-1.46207 2.28601,0.72432 0,1.187 1.20937,2.59971 3.0327,3.54259 1.66798,0.86254 2.80063,1.94375 2.51699,2.40268 -1.19451,1.93277 -9.88732,3.07117 -19.27013,2.52359 l -9.77956,-0.57073 -6,3.58501 c -9.71445,5.8044 -24.03987,12.54254 -26.6657,12.54254 -1.33887,0 -2.8618,0.39741 -3.3843,0.88314 -0.5225,0.48573 -3.0473,1.18228 -5.61067,1.54788 -4.26036,0.60764 -4.96897,0.39405 -8.25,-2.48674 z"
       style="fill:#939393" />
    <path
       inkscape:connector-curvature="0"
       id="path4445"
       d="m 375.78398,353.42698 c -3.31644,-1.44092 -6.84659,-7.39877 -5.8786,-9.92133 0.27078,-0.70563 4.94224,-1.7277 11.41466,-2.49741 11.84449,-1.40857 14.54146,-0.89734 15.54678,2.94698 0.47594,1.82003 0.15507,2.04643 -2.52517,1.78167 -2.47471,-0.24446 -3.38079,0.23758 -4.67032,2.48464 -1.75883,3.06485 -6.74482,6.71744 -9.09992,6.66633 -0.825,-0.0179 -2.97935,-0.6753 -4.78743,-1.46088 z m -24.58771,-1.77843 c -1.66324,-1.21619 -1.65024,-1.38202 0.24268,-3.09508 3.70118,-3.34953 15.13246,-6.16486 15.13246,-3.72687 0,1.05284 -2.44887,2.10699 -4.8947,2.10699 -0.95211,0 -3.0245,1.35 -4.6053,3 -3.26902,3.41212 -3.47278,3.4716 -5.87514,1.71496 z m -29.37486,-3.77731 c -2.94387,-2.75276 -4.56727,-5.8698 -2.34024,-4.49342 1.58416,0.97906 4.09024,-0.58407 4.09024,-2.55122 0,-1.34034 0.71265,-1.89301 2.44098,-1.89301 1.34254,0 2.74164,-0.48646 3.1091,-1.08103 0.36746,-0.59456 1.71931,-0.81719 3.0041,-0.49473 1.83596,0.4608 2.88274,-0.13052 4.8902,-2.76244 2.53554,-3.32426 6.79514,-5.13498 20.55562,-8.73804 2.475,-0.64806 7.43455,-2.24602 11.02121,-3.55103 3.58667,-1.305 7.24749,-2.37273 8.13517,-2.37273 2.90569,0 12.32495,3.36754 13.14331,4.69896 0.43983,0.71557 1.84723,1.30104 3.12755,1.30104 1.28033,0 2.88807,0.675 3.57276,1.5 0.68469,0.825 1.86479,1.5 2.62244,1.5 0.75766,0 1.37756,0.61288 1.37756,1.36195 0,2.12763 -9.68488,3.59122 -19.63163,2.96675 -8.21543,-0.51577 -9.19969,-0.36856 -13.36837,1.99947 -13.76089,7.81691 -24.24302,12.67183 -27.35939,12.67183 -1.86764,0 -3.87373,0.57596 -4.45795,1.27991 -0.58423,0.70395 -3.22683,1.37371 -5.87245,1.48834 -4.13031,0.17896 -5.26958,-0.22113 -8.06021,-2.8306 z"
       style="fill:#878787" />
    <path
       inkscape:connector-curvature="0"
       id="path4443"
       d="m 377.25748,353.91702 c -1.54767,-0.46456 -3.43715,-1.36188 -4.19885,-1.99404 -1.63056,-1.35324 -3.94826,-7.86168 -3.10123,-8.70871 0.32192,-0.32193 4.97927,-1.15288 10.34966,-1.84656 9.5095,-1.22831 15.26435,-0.99868 15.26435,0.60909 0,0.43627 0.27247,1.50326 0.60549,2.3711 0.49418,1.28781 0.064,1.46958 -2.34014,0.98876 -2.58037,-0.51607 -3.10204,-0.21155 -4.20688,2.45578 -0.75997,1.83473 -2.82296,3.85892 -5.19065,5.09303 -2.16118,1.12647 -4.02805,2.00944 -4.14861,1.96217 -0.12057,-0.0473 -1.48548,-0.46605 -3.03314,-0.93062 z m -24.66302,-2.45566 c -1.07937,-1.30056 -1.01163,-1.88291 0.40052,-3.44332 1.64856,-1.82163 8.59845,-4.11725 12.26925,-4.05265 1.68451,0.0297 1.67542,0.13146 -0.13395,1.5 -1.06762,0.80751 -2.78049,1.4682 -3.80637,1.4682 -1.02588,0 -3.1174,1.37094 -4.64781,3.04653 -2.46876,2.70294 -2.92908,2.86999 -4.08164,1.48124 z m -26.52305,-1.43123 c -3.05735,-0.91191 -6.5,-3.43813 -6.5,-4.7697 0,-0.65564 0.85141,-1.46229 1.89203,-1.79257 1.04062,-0.33028 2.13903,-1.54504 2.44092,-2.69947 0.3977,-1.52079 1.10595,-1.95329 2.5712,-1.57012 1.11227,0.29087 2.49172,-0.0367 3.06543,-0.72803 0.57372,-0.69128 2.05276,-1.07275 3.28677,-0.84771 1.63346,0.29789 2.77028,-0.39102 4.18004,-2.53312 1.80742,-2.74633 10.12321,-7.15582 13.49504,-7.15582 1.42308,0 10.96266,-2.63165 14.56857,-4.01897 10.85088,-4.17473 11.09144,-4.20777 17.20466,-2.36248 3.18744,0.96214 6.29495,2.34157 6.90558,3.0654 0.61064,0.72383 1.90752,1.31605 2.88197,1.31605 2.31286,0 8.66547,3.93585 8.02507,4.97205 -0.88616,1.43383 -7.80206,2.21737 -18.54156,2.10069 -10.42894,-0.11332 -10.5784,-0.0814 -16.5,3.52565 -11.72074,7.13947 -21.72525,11.48532 -25.17724,10.93671 -2.08089,-0.33071 -3.49214,-0.0399 -4.00565,0.82548 -0.91986,1.55013 -6.87597,2.60597 -9.79283,1.73596 z"
       style="fill:#787878" />
    <path
       inkscape:connector-curvature="0"
       id="path4441"
       d="m 373.76681,351.44455 c -3.60718,-3.03524 -4.6819,-7.18023 -2.20534,-8.50564 0.94944,-0.50812 6.51508,-1.23347 12.36809,-1.61187 10.4321,-0.67445 10.64185,-0.64569 10.64185,1.45927 0,1.48936 -0.62037,2.14728 -2.02475,2.14728 -1.21296,0 -2.38792,0.9552 -2.93056,2.38246 -1.24508,3.27481 -6.23192,6.61754 -9.87234,6.61754 -1.75766,0 -4.25472,-1.03987 -5.97695,-2.48904 z m -20.51473,-0.16363 c -1.54794,-1.54793 -0.48328,-3.53047 2.56933,-4.78443 4.91597,-2.01939 9.75,-2.87306 9.75,-1.72181 0,0.55 -1.4625,1.30819 -3.25,1.68486 -1.7875,0.37667 -4.4062,1.76873 -5.81933,3.09346 -1.41313,1.32472 -2.87564,2.10229 -3.25,1.72792 z m -27.68067,-2.07561 c -0.825,-0.31371 -2.49109,-1.3386 -3.70241,-2.27754 l -2.20242,-1.70716 2.45242,-1.31249 c 1.34882,-0.72187 2.45241,-1.91145 2.45241,-2.64351 0,-0.75309 1.08551,-1.33102 2.5,-1.33102 1.375,0 2.5,-0.50246 2.5,-1.11658 0,-0.65917 1.05016,-0.91582 2.5636,-0.62651 1.98432,0.37932 3.04785,-0.16492 4.70664,-2.40856 2.188,-2.95942 11.14902,-7.84215 14.41784,-7.85606 0.99655,-0.004 6.75269,-1.57924 12.7914,-3.5 6.03871,-1.92076 11.76049,-3.49229 12.71505,-3.49229 2.69912,0 10.9841,3.03577 12.54508,4.59675 0.77179,0.77179 2.39598,1.40325 3.60931,1.40325 3.13295,0 7.10751,2.94357 5.77448,4.2766 -0.59968,0.59968 -6.83807,1.14288 -14.63664,1.27446 l -13.5915,0.22932 -5.69763,3.49912 c -11.37025,6.98289 -19.49087,10.5175 -24.08157,10.48183 -3.04549,-0.0237 -4.66352,0.46553 -5.29969,1.60231 -0.91364,1.63259 -6.54184,2.15324 -9.81637,0.90808 z"
       style="fill:#676767" />
    <path
       inkscape:connector-curvature="0"
       id="path4439"
       d="m 373.49449,351.01051 c -1.69126,-1.69126 -2.92308,-3.98992 -2.92308,-5.45468 0,-3.04919 2.36856,-3.6746 14.9344,-3.94337 5.92569,-0.12675 8.48924,0.18538 8.7974,1.07113 0.23918,0.6875 -0.29281,1.25 -1.18219,1.25 -0.88938,0 -2.52457,1.53811 -3.63374,3.41802 -4.20593,7.12852 -10.97461,8.67709 -15.99279,3.6589 z m -19.92308,-1.45448 c 0,-2.14682 2.24182,-3.4975 6.54961,-3.9461 2.17272,-0.22625 2.99327,-0.22144 1.82346,0.0107 -1.16981,0.23214 -3.16075,1.52252 -4.42431,2.86752 -2.57873,2.74493 -3.94876,3.11544 -3.94876,1.06789 z m -27.53472,-0.61446 c -3.42914,-1.32172 -4.74525,-3.53074 -2.97761,-4.99775 0.83178,-0.69031 1.51233,-1.92748 1.51233,-2.74925 0,-1.0667 0.73774,-1.35311 2.57882,-1.00116 1.63284,0.31213 2.77156,-0.009 3.10425,-0.87631 0.31564,-0.82253 1.38224,-1.16383 2.67119,-0.85476 1.64491,0.39443 2.67305,-0.30745 4.40493,-3.00711 1.24256,-1.9369 2.83491,-3.52164 3.53856,-3.52164 0.70365,0 3.04466,-0.9 5.20225,-2 2.15759,-1.1 4.80829,-2 5.89044,-2 1.98081,0 2.89339,-0.25264 14.4222,-3.99271 3.47196,-1.12634 6.75417,-1.77502 7.29381,-1.4415 0.53964,0.33351 1.58608,0.10435 2.32543,-0.50926 1.42085,-1.1792 2.94817,-0.76679 11.06812,2.98861 2.2,1.01748 5.125,2.09459 6.5,2.39357 3.49949,0.76094 5.37322,2.14839 4.59716,3.40408 -0.41034,0.66395 -5.51961,1.07467 -13.53842,1.08832 -12.58071,0.0214 -12.99157,0.092 -17.71905,3.04482 -10.12115,6.32172 -23.37643,12.38733 -24.53606,11.2277 -0.76193,-0.76193 -1.69564,-0.79661 -2.97749,-0.11058 -1.02711,0.54969 -2.28052,0.74416 -2.78535,0.43216 -0.50483,-0.312 -1.28303,0.0477 -1.72933,0.79942 -1.02798,1.73137 -6.17869,2.7115 -8.84618,1.68335 z"
       style="fill:#5b5b5b" />
    <path
       inkscape:connector-curvature="0"
       id="path4437"
       d="m 375.92841,352.94201 c -4.78473,-1.93088 -7.38891,-9.83063 -3.357,-10.18342 1.1,-0.0963 3.2375,-0.30872 4.75,-0.47215 15.33837,-1.65737 16.25,-1.6568 16.25,0.0102 0,0.9003 -0.45661,1.63691 -1.0147,1.63691 -0.55808,0 -1.86958,1.40575 -2.91445,3.12389 -3.47988,5.7222 -8.63484,7.93416 -13.71385,5.88453 z m 4.643,-8.00842 c 0,-0.55 -0.45,-1 -1,-1 -0.55,0 -1,0.45 -1,1 0,0.55 0.45,1 1,1 0.55,0 1,-0.45 1,-1 z m -27,4.03518 c 0,-0.94405 3.16183,-3.03518 4.58925,-3.03518 0.3964,0 -0.0938,0.9 -1.08925,2 -1.93914,2.14273 -3.5,2.60438 -3.5,1.03518 z m -28.75,-1.06634 c -2.14749,-0.86319 -3.21689,-3.96884 -1.36663,-3.96884 0.48585,0 1.12342,-0.91797 1.41682,-2.03993 0.42575,-1.62808 1.05498,-1.90903 3.11663,-1.39159 1.72463,0.43285 2.58318,0.24118 2.58318,-0.5767 0,-0.74161 0.80683,-1.01405 2.04454,-0.69038 1.51997,0.39748 2.59215,-0.30072 4.17886,-2.72128 2.31516,-3.53181 9.67759,-7.46098 16.2766,-8.68645 2.2,-0.40856 5.575,-1.20613 7.5,-1.77238 1.925,-0.56625 5.44955,-1.60305 7.83234,-2.30399 3.87101,-1.13873 4.43533,-1.09038 5.29969,0.45413 1.25692,2.246 3.04011,2.23164 2.66181,-0.0214 -0.42378,-2.5239 5.09298,-1.89136 11.01926,1.26344 2.56904,1.36761 5.63197,2.48656 6.8065,2.48656 1.17453,0 2.69571,0.675 3.3804,1.5 1.51946,1.83084 2.22674,1.72543 -13.75491,2.05013 l -12.25491,0.24898 -7.24509,4.4826 c -11.457,7.08853 -15.92104,9.08497 -20.74509,9.27774 -8.56325,0.34218 -9,0.43635 -9,1.94055 0,1.71209 -5.94565,1.998 -9.75,0.46884 z m 36.5625,-2.65195 c 0.72188,-0.28888 1.58438,-0.25335 1.91667,0.079 0.33229,0.33229 -0.25834,0.56864 -1.3125,0.52522 -1.16495,-0.048 -1.4019,-0.28495 -0.60417,-0.60417 z"
       style="fill:#535353" />
    <path
       inkscape:connector-curvature="0"
       id="path4435"
       d="m 374.9537,352.025 c -3.15054,-1.92113 -5.22931,-6.64439 -3.62873,-8.24497 0.90426,-0.90426 9.62012,-2.03864 17.15559,-2.23282 2.72262,-0.0702 4.5714,0.36451 4.83333,1.13638 0.2333,0.6875 -0.31172,1.25 -1.21117,1.25 -0.91162,0 -2.0902,1.30479 -2.66314,2.94831 -1.04859,3.008 -6.60389,7.05473 -9.67533,7.04795 -0.93106,-0.002 -3.09581,-0.85924 -4.81055,-1.90485 z m 5.61771,-7.09141 c 0,-0.55 -0.45,-1 -1,-1 -0.55,0 -1,0.45 -1,1 0,0.55 0.45,1 1,1 0.55,0 1,-0.45 1,-1 z m -26,4.27743 c 0,-1.25825 2.85836,-3.7524 3.5303,-3.08047 0.26508,0.26508 -0.4208,1.29895 -1.52417,2.29749 -1.10337,0.99854 -2.00613,1.35088 -2.00613,0.78298 z m -28.75,-1.30859 c -2.59759,-1.0441 -2.7048,-1.60428 -1,-5.22466 0.9689,-2.05759 1.75598,-2.5278 3.5,-2.09095 1.40938,0.35303 2.25,0.10898 2.25,-0.65323 0,-0.76349 0.84046,-1.00588 2.25595,-0.65061 1.75463,0.44038 2.62955,-0.0848 3.93718,-2.36317 1.71218,-2.98331 12.62265,-8.98622 16.33272,-8.98622 1.91084,0 4.32682,-0.6447 13.40767,-3.57782 5.3992,-1.74394 5.44261,-1.74134 6.87197,0.4114 1.75824,2.64805 3.19451,2.79781 3.19451,0.33309 0,-2.49625 0.90142,-3.20338 2.85781,-2.24186 2.0062,0.986 7.06011,2.77771 13.39219,4.74778 2.6125,0.81282 4.75,1.84154 4.75,2.28605 0,1.30692 -5.03988,1.89031 -8.28646,0.9592 -1.64906,-0.47294 -3.49672,-0.55118 -4.10591,-0.17386 -0.6092,0.37731 -4.18462,0.80905 -7.94539,0.9594 -5.71512,0.2285 -7.5838,0.77688 -11.38174,3.34008 -5.7106,3.85404 -19.76125,10.95654 -21.67497,10.95654 -0.79137,0 -1.64511,-0.5625 -1.8972,-1.25 -0.36666,-1 -0.72333,-1 -1.78333,0 -0.72875,0.6875 -2.31186,1.25 -3.51801,1.25 -1.20616,0 -2.45203,0.675 -2.76862,1.5 -0.63693,1.65982 -4.84081,1.89478 -8.38837,0.46884 z"
       style="fill:#4b4b4b" />
    <path
       inkscape:connector-curvature="0"
       id="path4433"
       d="m 375.99253,352.51467 c -3.15117,-1.37211 -6.17017,-6.56007 -4.95842,-8.52072 1.05436,-1.706 7.5373,-1.32785 7.5373,0.43964 0,0.825 0.45,1.5 1,1.5 0.55,0 1,-0.86762 1,-1.92804 0,-1.58381 0.96849,-2.04905 5.42435,-2.60578 6.98035,-0.87213 8.43974,0.004 5.12505,3.07562 -1.40217,1.29949 -2.5494,3.01474 -2.5494,3.81167 0,1.49593 -6.19374,5.67674 -8.30716,5.60739 -0.65606,-0.0215 -2.57834,-0.64243 -4.27172,-1.37978 z m -49.17112,-4.80158 c -4.0604,-1.95825 -2.27146,-7.50367 2.06922,-6.41423 1.90953,0.47926 2.64907,0.20461 3.00134,-1.11465 0.38878,-1.45603 0.59323,-1.356 1.21493,0.59444 0.70312,2.20586 0.87732,2.08718 2.93486,-1.99948 1.77415,-3.52378 3.39413,-4.95861 8.57513,-7.59506 3.51327,-1.78778 7.27083,-3.25052 8.35014,-3.25052 1.07931,0 3.56933,-0.49068 5.53338,-1.0904 1.96405,-0.59972 4.921,-1.46056 6.571,-1.91298 1.65,-0.45242 3.97621,-1.10555 5.16935,-1.45139 1.62757,-0.47177 2.33119,-0.11889 2.81739,1.41298 0.82706,2.60586 4.51326,2.75325 4.51326,0.18046 0,-2.26745 3.36152,-1.92827 9.56572,0.96519 2.23615,1.04288 4.73764,1.89614 5.55888,1.89614 0.82123,0 2.36665,0.68207 3.43427,1.51572 1.78453,1.39345 1.37642,1.51009 -5.05887,1.44589 -12.89492,-0.12864 -11.61541,-0.17965 -16.99259,0.67745 -2.19592,0.35001 -6.70636,2.3503 -10.02321,4.44508 -3.31685,2.09478 -9.06746,5.22979 -12.77913,6.96669 -5.54603,2.5953 -7.01799,2.93436 -8.26088,1.90285 -1.10816,-0.91969 -2.10461,-0.97485 -3.72828,-0.20638 -4.32453,2.04678 -9.52316,4.25173 -9.86704,4.18502 -0.19188,-0.0372 -1.36137,-0.55599 -2.59887,-1.15282 z m 28.25,0.2205 c 0.33992,-0.55 1.06803,-1 1.61803,-1 0.55,0 0.72189,0.45 0.38197,1 -0.33992,0.55 -1.06803,1 -1.61803,1 -0.55,0 -0.72189,-0.45 -0.38197,-1 z"
       style="fill:#434343" />
    <path
       inkscape:connector-curvature="0"
       id="path4431"
       d="m 375.88672,352.31755 c -3.09142,-1.52451 -5.92146,-6.59417 -4.74432,-8.49883 0.30088,-0.48682 2.08136,-0.88513 3.95664,-0.88513 2.61991,0 3.27629,0.34741 2.834,1.5 -0.35298,0.91983 8.3e-4,1.5 0.91475,1.5 0.8197,0 1.70818,-0.83295 1.9744,-1.85099 0.57986,-2.21738 7.36594,-3.61468 10.9161,-2.2477 2.08636,0.80336 2.14413,0.97466 0.54613,1.61971 -0.98284,0.39674 -2.46718,2.03671 -3.29854,3.64438 -1.43573,2.77639 -6.7683,6.84894 -8.91447,6.80809 -0.55,-0.0105 -2.43311,-0.72576 -4.18469,-1.58953 z m -20.31531,-4.38396 c 0,-0.55 0.47656,-1 1.05902,-1 0.58246,0 0.7809,0.45 0.44098,1 -0.33992,0.55 -0.81648,1 -1.05902,1 -0.24254,0 -0.44098,-0.45 -0.44098,-1 z m -29.29327,-1.25 c -1.10385,-0.82351 -1.47046,-2.01768 -1.07449,-3.5 0.70265,-2.63045 1.30489,-2.72093 5.74951,-0.86385 l 3.31752,1.38614 2.06351,-4.8842 c 1.13494,-2.68631 2.8901,-5.15691 3.90037,-5.49022 1.01027,-0.33331 3.63685,-1.42626 5.83685,-2.42878 2.2,-1.00252 6.925,-2.55985 10.5,-3.46072 3.575,-0.90088 7.88195,-2.0588 9.571,-2.57317 4.33526,-1.32021 5.16653,-1.19767 7.46454,1.10034 1.94712,1.94712 2.16002,1.96201 4.90112,0.34281 2.73465,-1.6154 3.19096,-1.58812 9.98753,0.59727 3.91707,1.25951 7.31593,2.60389 7.55303,2.98751 0.23709,0.38363 -3.93579,0.73878 -9.27307,0.78923 -13.20534,0.12483 -14.94625,0.46894 -20.70415,4.09248 -2.75,1.73062 -8.53427,4.92824 -12.85394,7.10582 -7.26109,3.66038 -8.02415,3.84771 -10.10886,2.48176 -1.99904,-1.30982 -2.40043,-1.30215 -3.53724,0.0676 -0.74646,0.89943 -2.06116,1.29791 -3.14607,0.95358 -1.18076,-0.37476 -2.08437,-0.0166 -2.46581,0.97742 -0.72391,1.88648 -5.32416,2.0775 -7.68135,0.31895 z"
       style="fill:#3c3c3c" />
    <path
       inkscape:connector-curvature="0"
       id="path4429"
       d="m 377.94568,353.24414 c -2.87528,-0.56415 -6.26064,-4.33382 -6.59828,-7.34734 -0.23509,-2.09821 0.18624,-2.5082 2.84336,-2.76682 2.5137,-0.24467 3.23197,0.12703 3.69938,1.91445 0.48509,1.85497 0.82864,2.01174 2.09869,0.9577 0.83525,-0.6932 1.42053,-1.7797 1.30061,-2.41445 -0.13918,-0.73672 1.86137,-1.26255 5.53181,-1.45399 l 5.74985,-0.2999 -2.91282,4.2999 c -2.42596,3.5812 -7.9582,8.16911 -9.24116,7.66372 -0.19014,-0.0749 -1.30229,-0.32387 -2.47144,-0.55327 z m -51.17427,-6.51055 c -1.47755,-1.47755 -1.58959,-5.8 -0.15034,-5.8 2.54657,0 6.95034,3.1843 6.95034,5.02568 0,1.49568 -0.67881,1.97432 -2.8,1.97432 -1.54,0 -3.34,-0.54 -4,-1.2 z m 8.55806,-2.37527 c -1.59743,-1.59743 3.4198,-11.42473 5.83278,-11.42473 0.74845,0 2.8342,-0.89832 4.63499,-1.99626 1.80079,-1.09795 4.13462,-1.99795 5.18628,-2 1.75555,-0.003 7.89656,-1.56888 16.50879,-4.20835 2.91779,-0.89425 3.61924,-0.77719 4.76952,0.79592 0.74175,1.01439 2.57734,1.93477 4.07911,2.04528 1.50176,0.11051 2.92898,0.23749 3.1716,0.28217 1.37441,0.25312 -3.81893,3.02291 -5.71768,3.04944 -1.2521,0.0175 -6.16328,2.49772 -10.91373,5.51162 -11.82293,7.501 -16.55971,9.25748 -20.00947,7.41983 -2.05705,-1.09576 -2.71865,-1.12826 -3.04722,-0.14965 -0.42654,1.27038 -3.44606,1.72364 -4.49497,0.67473 z m 45.91837,-14.17473 c -0.24288,-0.4125 -0.0803,-1.70476 0.3613,-2.8717 l 0.8029,-2.12169 5.82968,1.96341 c 7.46995,2.51586 8.0046,3.17231 2.06389,2.53409 -2.62119,-0.2816 -5.01025,-0.11647 -5.30902,0.36695 -0.66378,1.07403 -3.14209,1.15927 -3.74875,0.12894 z"
       style="fill:#343434" />
    <path
       inkscape:connector-curvature="0"
       id="path4427"
       d="m 374.15104,350.81757 c -3.60994,-2.83958 -3.30088,-7.24233 0.53967,-7.68779 1.94667,-0.22579 2.75721,0.2236 3.15638,1.75 0.73312,2.80345 2.5726,2.58307 3.72432,-0.44619 0.84611,-2.22543 1.52308,-2.5 6.16381,-2.5 l 5.21331,0 -2.18856,2.03895 c -1.20371,1.12143 -2.18856,2.66579 -2.18856,3.43191 0,2.10948 -5.42376,5.52914 -8.76951,5.52914 -1.62843,0 -4.17131,-0.95221 -5.65086,-2.11602 z m -46.95498,-4.40219 c -1.81696,-1.81696 -1.93859,-2.43952 -0.82042,-4.19927 0.99788,-1.57043 7.53448,2.19416 6.9408,3.99739 -0.62159,1.88803 -4.31249,2.00977 -6.12038,0.20188 z m 8.93883,-2.37908 c -0.92795,-1.50145 0.56096,-6.90535 2.34824,-8.52282 2.942,-2.66248 11.10259,-6.57989 13.70694,-6.57989 1.38205,0 3.3621,-0.45452 4.40011,-1.01004 1.038,-0.55553 3.94079,-1.20254 6.45063,-1.43781 2.50985,-0.23528 5.34349,-0.66236 6.29698,-0.94909 1.53496,-0.46157 7.23362,3.35846 7.23362,4.84897 0,0.30138 -1.24776,0.54797 -2.7728,0.54797 -1.52505,0 -5.23755,1.6247 -8.25,3.61045 -3.01246,1.98575 -8.59819,5.18345 -12.41274,7.10601 -6.64612,3.34968 -7.04824,3.42898 -9.63635,1.90014 -2.38677,-1.40989 -2.84454,-1.42222 -3.93691,-0.106 -1.40473,1.6926 -2.61805,1.90219 -3.42772,0.59211 z m 46.0604,-13.90227 c -1.21445,-1.96502 2.05249,-3.34585 5.53994,-2.34155 l 3.33618,0.96073 -3.05,0.0902 c -1.6775,0.0496 -3.53921,0.5794 -4.13713,1.17732 -0.68697,0.68697 -1.30868,0.72867 -1.68899,0.11331 z"
       style="fill:#282828" />
    <path
       inkscape:connector-curvature="0"
       id="path4425"
       d="m 375.58802,351.64759 c -2.24722,-1.13701 -5.0224,-6.10093 -3.95279,-7.07026 0.2399,-0.21741 1.48026,-0.71653 2.75635,-1.10917 1.8409,-0.56642 2.43306,-0.28223 2.86663,1.37577 0.69803,2.66926 4.3132,2.83408 4.3132,0.19665 0,-1.04116 0.7118,-2.16616 1.58179,-2.5 2.2458,-0.8618 7.66297,-0.75399 7.18647,0.14301 -0.21912,0.4125 -0.9385,2.1 -1.59861,3.75 -1.22714,3.06733 -6.00747,6.5117 -9.00069,6.48526 -0.91793,-0.008 -2.78649,-0.58017 -4.15235,-1.27126 z m -47.81661,-5.914 c -1.20751,-1.20752 -1.66107,-3.8 -0.66482,-3.8 1.12132,0 5.46482,3.27066 5.46482,4.11501 0,1.30121 -3.4074,1.07759 -4.8,-0.31501 z m 8.83327,-4.55 c 0.0183,-1.5125 0.8215,-3.65 1.7849,-4.75 2.28212,-2.60572 10.0263,-6.50107 15.41835,-7.75548 5.73479,-1.33415 19.02139,-1.50168 19.39184,-0.24452 0.29713,1.00833 -12.29634,9.09177 -20.62836,13.24086 -5.42055,2.69926 -7.7246,2.81835 -10.25325,0.52995 -1.81098,-1.63891 -1.96125,-1.63891 -2.87843,0 -1.4521,2.59477 -2.8726,2.08329 -2.83505,-1.02081 z"
       style="fill:#161616" />
    <path
       inkscape:connector-curvature="0"
       id="path4423"
       d="m 376.59112,351.64914 c -2.58416,-1.30752 -5.26245,-5.51377 -4.39971,-6.90972 0.84319,-1.3643 4.38,-0.89016 4.38,0.58718 0,0.76616 0.73204,1.67392 1.62675,2.01725 1.82762,0.70133 4.37325,-0.99612 4.37325,-2.91613 0,-1.24468 4.83463,-2.71437 6.18458,-1.88006 1.51347,0.93538 -1.54633,6.44638 -4.64106,8.35904 -3.82731,2.3654 -4.23643,2.40577 -7.52381,0.74244 z m -47.99075,-6.67649 c -0.80907,-0.51167 -1.2107,-1.19066 -0.8925,-1.50885 0.3182,-0.3182 1.14776,0.10733 1.84348,0.94562 1.4426,1.73822 1.16599,1.90204 -0.95098,0.56323 z m 15.86222,-2.6791 c -1.08067,-1.30907 -1.11218,-1.77911 -0.14118,-2.10592 0.6875,-0.23139 1.25,-0.92321 1.25,-1.53737 0,-0.77593 -0.36617,-0.7505 -1.2,0.0833 -1.79671,1.79671 -2.51462,1.47321 -3.05982,-1.37882 -0.34179,-1.78798 0.006,-2.76172 1.13342,-3.17524 0.89452,-0.32803 2.71347,-1.29318 4.04212,-2.14478 3.46056,-2.21804 15.37974,-5.10598 16.53428,-4.00615 0.5225,0.49775 2.46156,0.90499 4.30902,0.90499 4.20345,0 3.68249,0.84035 -3.60456,5.81444 -11.28831,7.70533 -17.2149,10.02681 -19.26328,7.54552 z m -6.89118,-1.85996 c 0,-1.375 0.3876,-2.5 0.86133,-2.5 0.47373,0 0.64627,1.125 0.38342,2.5 -0.26285,1.375 -0.65044,2.5 -0.86133,2.5 -0.21088,0 -0.38342,-1.125 -0.38342,-2.5 z"
       style="fill:#0b0b0b" />
    <path
       inkscape:connector-curvature="0"
       id="path4421"
       d="m 374.61036,349.74503 c -1.12142,-1.20371 -2.03895,-3.00371 -2.03895,-4 0,-2.50596 3.62681,-2.34654 4.28975,0.18856 0.75551,2.88907 4.49253,2.57196 5.8922,-0.5 0.74253,-1.62967 1.95354,-2.5 3.47857,-2.5 2.70464,0 2.64382,-0.16566 1.32203,3.60078 -1.829,5.21171 -9.34291,7.07554 -12.9436,3.21066 z m -28.76903,-8.56144 c 0.27674,-0.9625 0.85322,-2.60485 1.28105,-3.64968 0.68118,-1.66352 0.44666,-1.81654 -1.88655,-1.23094 -1.52397,0.38249 -2.66442,0.25058 -2.66442,-0.30817 0,-1.4063 8.28717,-6.06121 10.7908,-6.06121 1.1633,0 3.29461,-0.53742 4.73624,-1.19427 2.03169,-0.9257 3.0512,-0.9257 4.53348,0 1.05179,0.65685 2.59345,1.19427 3.42591,1.19427 2.79599,0 1.55145,1.49069 -4.73643,5.67325 -10.89844,7.24941 -16.54602,9.28397 -15.48008,5.57675 z"
       style="fill:#010101" />
  </g>
</svg>
