<?xml version="1.0" encoding="UTF-8" standalone="no"?>
<!-- Created with Inkscape (http://www.inkscape.org/) -->

<svg
   xmlns:dc="http://purl.org/dc/elements/1.1/"
   xmlns:cc="http://creativecommons.org/ns#"
   xmlns:rdf="http://www.w3.org/1999/02/22-rdf-syntax-ns#"
   xmlns:svg="http://www.w3.org/2000/svg"
   xmlns="http://www.w3.org/2000/svg"
   xmlns:sodipodi="http://sodipodi.sourceforge.net/DTD/sodipodi-0.dtd"
   xmlns:inkscape="http://www.inkscape.org/namespaces/inkscape"
   id="svg2"
   version="1.1"
   inkscape:version="0.48.3.1 r9886"
   width="900"
   height="900"
   xml:space="preserve"
   sodipodi:docname="Jomagam by Juci.svg"
   inkscape:export-filename="/home/BROKERNET-GROUP/polonkai.gergely/Dropbox/Jomagam by Juci favicon.png"
   inkscape:export-xdpi="1.6"
   inkscape:export-ydpi="1.6"><metadata
     id="metadata8"><rdf:RDF><cc:Work
         rdf:about=""><dc:format>image/svg+xml</dc:format><dc:type
           rdf:resource="http://purl.org/dc/dcmitype/StillImage" /><dc:title></dc:title></cc:Work></rdf:RDF></metadata><defs
     id="defs6"><clipPath
       clipPathUnits="userSpaceOnUse"
       id="clipPath16"><path
         d="m 0,1190.551 841.89,0 L 841.89,0 0,0 0,1190.551 z"
         id="path18"
         inkscape:connector-curvature="0" /></clipPath></defs><sodipodi:namedview
     pagecolor="#ffffff"
     bordercolor="#666666"
     borderopacity="1"
     objecttolerance="10"
     gridtolerance="10"
     guidetolerance="10"
     inkscape:pageopacity="0"
     inkscape:pageshadow="2"
     inkscape:window-width="1920"
     inkscape:window-height="1021"
     id="namedview4"
     showgrid="false"
     fit-margin-top="0"
     fit-margin-left="0"
     fit-margin-right="0"
     fit-margin-bottom="0"
     inkscape:zoom="0.70710678"
     inkscape:cx="304.5347"
     inkscape:cy="432.05546"
     inkscape:window-x="0"
     inkscape:window-y="27"
     inkscape:window-maximized="1"
     inkscape:current-layer="g10"
     inkscape:snap-bbox="true"
     inkscape:snap-bbox-midpoints="true"
     inkscape:snap-page="true"
     showguides="true"
     inkscape:guide-bbox="true"><sodipodi:guide
       orientation="0,1"
       position="450,450"
       id="guide3178" /><sodipodi:guide
       orientation="1,0"
       position="450,450"
       id="guide3180" /></sodipodi:namedview><g
     id="g10"
     inkscape:groupmode="layer"
     inkscape:label="PG_Vector"
     transform="matrix(1.25,0,0,-1.25,-201.75833,1487.0383)"><path
       inkscape:connector-curvature="0"
       id="path22"
       style="fill:#000000;fill-opacity:1;fill-rule:nonzero;stroke:none"
       d="m 519.65518,970.65954 c 8.739,0.76 18.998,9.499 25.838,14.818 6.839,5.32 14.818,6.84 23.558,6.08 6.838,-0.76 48.254,-7.219 47.115,-13.679 -1.52,-7.979 -12.539,-7.979 -17.859,-6.459 -6.839,2.28 -13.678,5.319 -20.517,7.219 -11.02,2.28 -28.117,5.7 -38.757,0.76" /><path
       inkscape:connector-curvature="0"
       id="path26"
       style="fill:#000000;fill-opacity:1;fill-rule:nonzero;stroke:none"
       d="m 519.25388,969.07604 c 7.846,1.007 14.499,5.339 20.763,9.904 3.755,2.738 7.205,5.92 11.234,8.258 4.88,2.832 11.275,3.341 16.774,2.671 11.536,-1.405 23.174,-3.606 34.348,-6.792 2.683,-0.765 9.831,-2.207 10.878,-5.4 1.359,-4.147 -5.791,-5.439 -8.21,-5.453 -5.09,-0.028 -10.023,2.543 -14.683,4.299 -15.521,5.846 -36.499,10.811 -52.464,4.006 -3.726,-1.588 -0.308,-3.444 2.279,-2.342 10.231,4.362 22.824,1.469 33.295,-0.626 9.977,-1.996 19.039,-8.192 29.308,-8.587 6.261,-0.241 13.479,1.936 16.006,8.147 1.769,4.348 -5.071,6.465 -7.953,7.513 -12.167,4.425 -25.509,6.495 -38.299,8.23 -7.882,1.07 -16.319,0.372 -23.493,-3.284 -9.845,-5.017 -17.485,-15.9 -28.98,-17.377 -2.783,-0.357 -4.822,-3.684 -0.803,-3.167" /><path
       inkscape:connector-curvature="0"
       id="path30"
       style="fill:#000000;fill-opacity:1;fill-rule:nonzero;stroke:none"
       d="m 647.69428,959.60584 c -5.333,-4.912 -4.42,-10.96 -2.134,-17.272 1.087,-3 2.488,-5.871 3.425,-8.927 1.678,-5.482 1.606,-11.701 2.307,-17.362 1.657,-13.415 10.161,-24.637 13.471,-37.641 1.37,-5.38 1.971,-12.215 -2.773,-16.121 -5.588,-4.602 -15.018,0.822 -20.424,3.275 -3.86,1.752 -7.716,3.291 -11.888,4.101 -7.417,1.439 -14.661,-1.886 -22.04,-0.988 -11.136,1.357 -5.041,17.951 1.543,21.116 3.496,1.68 -1.797,2.224 -3.509,1.401 -6.866,-3.3 -10.925,-10.949 -9.595,-18.477 1.446,-8.186 11.471,-7.471 17.627,-6.691 5.501,0.697 10.503,1.504 15.953,-0.135 5.378,-1.618 10.298,-4.56 15.56,-6.499 7.184,-2.646 17.624,-2.519 23.062,3.771 9.084,10.509 -1.765,28.732 -6.456,38.912 -4.333,9.403 -4.842,18.872 -6.31,29.033 -1.168,8.077 -10.91,20.752 -3.241,27.814 2.398,2.207 -3.349,1.821 -4.578,0.69" /><path
       inkscape:connector-curvature="0"
       id="path34"
       style="fill:#000000;fill-opacity:1;fill-rule:nonzero;stroke:none"
       d="m 662.90128,963.44034 c 3.04,8.359 31.917,32.677 33.438,16.338 1.519,-16.718 -22.039,-12.159 -32.677,-16.338" /><path
       inkscape:connector-curvature="0"
       id="path38"
       style="fill:#000000;fill-opacity:1;fill-rule:nonzero;stroke:none"
       d="m 665.76168,963.94234 c 2.152,5.327 22.347,26.55 26.974,17.918 1.423,-2.656 0.903,-6.467 -0.284,-9.068 -1.636,-3.589 -5.821,-4.531 -9.313,-5.149 -6.842,-1.211 -13.887,-1.106 -20.486,-3.514 -3.882,-1.416 -0.206,-2.19 2.019,-1.378 8.625,3.146 18.395,1.328 26.881,5.377 5.718,2.728 11.845,11.81 5.404,17.279 -5.003,4.248 -15.226,-1.975 -19.402,-4.699 -6.366,-4.154 -14.565,-10.472 -17.514,-17.77 -0.43,-1.067 5.114,-0.499 5.721,1.004" /><path
       inkscape:connector-curvature="0"
       id="path42"
       style="fill:#000000;fill-opacity:1;fill-rule:nonzero;stroke:none"
       d="m 520.82218,954.52484 c 22.434,0.264 49.55,13.637 68.72,-3.634 1.567,-1.412 7.01,0.825 5.373,2.301 -20.603,18.562 -47.868,5.007 -71.866,4.725 -2.226,-0.026 -6.143,-3.438 -2.227,-3.392" /><path
       inkscape:connector-curvature="0"
       id="path46"
       style="fill:#000000;fill-opacity:1;fill-rule:nonzero;stroke:none"
       d="m 653.00578,947.08734 c 6.661,-0.194 33.356,8.188 33.216,-3.422 -0.02,-1.596 5.769,-0.576 5.795,1.553 0.168,13.854 -29.533,4.728 -36.698,4.937 -2.041,0.06 -6.225,-2.954 -2.313,-3.068" /><path
       inkscape:connector-curvature="0"
       id="path50"
       style="fill:#000000;fill-opacity:1;fill-rule:nonzero;stroke:none"
       d="m 665.56148,946.72164 c -7.22,-3.04 -0.76,-11.019 5.319,-11.019 6.08,0 10.259,7.979 4.56,12.159" /><path
       inkscape:connector-curvature="0"
       id="path54"
       style="fill:#000000;fill-opacity:1;fill-rule:nonzero;stroke:none"
       d="m 664.40428,947.95984 c -3.177,-1.482 -5.961,-4.064 -4.516,-7.813 1.332,-3.455 5.292,-5.658 8.803,-6.049 4.22,-0.47 8.481,1.424 10.952,4.861 2.38,3.31 1.58,7.578 -1.515,10.05 -1.643,1.311 -7.021,-0.981 -5.375,-2.294 1.823,-1.456 2.76,-3.247 2.333,-5.598 -0.315,-1.73 -1.719,-3.781 -3.626,-3.708 -2.873,0.109 -9.197,5.997 -4.742,8.074 0.707,0.33 2.458,1.391 1.531,2.386 -0.878,0.941 -2.845,0.557 -3.845,0.091" /><path
       inkscape:connector-curvature="0"
       id="path58"
       style="fill:#000000;fill-opacity:1;fill-rule:nonzero;stroke:none"
       d="m 610.64448,857.31484 c -4.052,-8.228 -10.829,-11.826 -19.727,-12.74 -6.781,-0.697 -13.363,0.073 -19.948,-2.041 -11.811,-3.792 -15.259,-17.369 -25.64,-23.048 -3.38,-1.849 1.961,-1.633 3.367,-0.864 5.663,3.098 9.551,7.618 13.434,12.674 1.906,2.48 3.869,4.876 6.196,6.977 3.61,3.261 7.685,3.445 12.327,3.516 13.929,0.213 28.966,2.81 35.716,16.516 0.478,0.971 -4.983,0.517 -5.725,-0.99" /><path
       inkscape:connector-curvature="0"
       id="path62"
       style="fill:#000000;fill-opacity:1;fill-rule:nonzero;stroke:none"
       d="m 557.23918,820.62684 c -14.352,-10.616 -20.204,-27.121 -31.314,-40.377 -8.212,-9.798 -23.672,-19.801 -16.767,-34.545 0.913,-1.95 6.571,-0.102 5.796,1.552 -6.512,13.905 8.295,23.793 16.35,32.932 5.08,5.762 8.681,13.077 12.846,19.504 4.903,7.567 10.415,14.67 17.714,20.068 2.62,1.938 -3.209,1.913 -4.625,0.866" /><path
       inkscape:connector-curvature="0"
       id="path66"
       style="fill:#000000;fill-opacity:1;fill-rule:nonzero;stroke:none"
       d="m 615.16888,854.37394 c 3.667,-7.75 21.753,-11.241 25.029,-1.392 1.029,3.092 -4.75,2.816 -5.508,0.537 -1.728,-5.195 -11.976,-1.291 -13.726,2.408 -1.144,2.418 -6.859,0.695 -5.795,-1.553" /><path
       inkscape:connector-curvature="0"
       id="path70"
       style="fill:#000000;fill-opacity:1;fill-rule:nonzero;stroke:none"
       d="m 650.14248,850.92174 c -0.745,-9.934 5.588,-18.93 9.863,-27.428 1.385,-2.754 1.503,-3.047 -1.272,-4.685 -2.671,-1.577 -5.775,-2.322 -8.798,-2.845 -5.942,-1.029 -12.115,-0.604 -18.052,0.199 -12.044,1.628 -23.889,6.134 -35.215,10.356 -4.364,1.628 -8.368,2.226 -12.98,1.452 -5.317,-0.892 -10.783,-4.218 -16.098,-1.561 -1.457,0.729 -6.815,-1.486 -4.679,-2.553 8.016,-4.008 15.533,2.074 23.559,1.65 5.841,-0.308 12.467,-4.112 18.009,-5.96 5.093,-1.697 10.267,-3.257 15.474,-4.565 14.751,-3.706 34.352,-4.785 46.745,5.671 0.242,0.204 0.798,0.665 0.621,1.077 -4.042,9.45 -12.228,19.245 -11.417,30.05 0.15,2.01 -5.636,0.791 -5.76,-0.858" /><path
       inkscape:connector-curvature="0"
       id="path74"
       style="fill:#000000;fill-opacity:1;fill-rule:nonzero;stroke:none"
       d="m 569.95308,816.75774 c 0.987,-12.188 18.904,-16.562 28.499,-18.946 13.859,-3.444 27.472,-3.137 37.284,8.48 0.238,0.283 -4.609,0.221 -5.703,-1.073 -2.455,-2.908 -5.325,-5.737 -9.069,-6.885 -3.208,-0.982 -6.915,-0.419 -10.157,0.053 -4.535,0.661 -9.045,1.864 -13.43,3.173 -8.009,2.392 -20.828,6.88 -21.629,16.751 -0.074,0.922 -5.913,-0.1 -5.795,-1.553" /><path
       inkscape:connector-curvature="0"
       id="path78"
       style="fill:#000000;fill-opacity:1;fill-rule:nonzero;stroke:none"
       d="m 652.21088,810.04874 c -5.682,-8.583 -11.531,-17.167 -16.947,-25.912 -4.691,-7.573 -2.809,-15.877 0.466,-23.54 3.763,-8.808 7.047,-17.606 6.742,-27.344 -0.293,-9.298 -5.354,-20.822 -12.929,-26.477 -3.151,-2.353 1.749,-3.316 3.645,-1.902 15.019,11.215 17.597,31.034 12.167,47.773 -3.206,9.88 -10.07,19.053 -5.488,29.696 2.101,4.879 6.069,9.327 8.949,13.787 2.945,4.561 5.823,9.164 8.819,13.69 1.548,2.338 -4.317,1.903 -5.424,0.229" /><path
       inkscape:connector-curvature="0"
       id="path82"
       style="fill:#000000;fill-opacity:1;fill-rule:nonzero;stroke:none"
       d="m 619.34858,740.00484 c 1.793,-9.024 4.636,-18.394 0.651,-27.243 -3.249,-7.215 -11.093,-14.999 -19.132,-16.296 -3.099,-0.5 -4.498,-4.715 -0.559,-4.08 9.492,1.532 17.385,7.932 22.779,15.671 7.282,10.448 4.357,21.921 2.056,33.501 -0.514,2.585 -6.321,1.096 -5.795,-1.553" /><path
       inkscape:connector-curvature="0"
       id="path86"
       style="fill:#000000;fill-opacity:1;fill-rule:nonzero;stroke:none"
       d="m 602.20208,726.15864 c 0.315,-9.326 -8.25,-18.223 -16.232,-21.912 -3.589,-1.659 -0.408,-5.09 2.638,-3.683 9.385,4.337 19.859,14.913 19.485,25.963 -0.108,3.189 -5.985,2.411 -5.891,-0.368" /><path
       inkscape:connector-curvature="0"
       id="path90"
       style="fill:#000000;fill-opacity:1;fill-rule:nonzero;stroke:none"
       d="m 583.37498,729.72844 c -5.05,-8.992 -10.76,-16.269 -21.323,-18.471 -3.657,-0.762 -2.517,-4.777 1.08,-4.027 12.498,2.605 19.786,11.112 25.792,21.806 1.609,2.866 -4.285,2.942 -5.549,0.692" /><path
       inkscape:connector-curvature="0"
       id="path94"
       style="fill:#000000;fill-opacity:1;fill-rule:nonzero;stroke:none"
       d="m 566.77538,732.32164 c -6.334,-5.881 -11.186,-13.786 -20.424,-14.943 -2.545,-0.319 -5.015,-3.098 -0.957,-2.59 5.396,0.676 10.233,2.5 14.579,5.787 4.514,3.413 7.979,8.11 12.113,11.947 1.031,0.959 -0.887,1.287 -1.455,1.266 -1.379,-0.051 -2.835,-0.519 -3.856,-1.467" /><path
       inkscape:connector-curvature="0"
       id="path98"
       style="fill:#000000;fill-opacity:1;fill-rule:nonzero;stroke:none"
       d="m 553.40718,740.56044 c -4.594,-7.337 -12.351,-13.475 -21.376,-10.607 -2.063,0.656 -6.832,-2.355 -3.475,-3.422 12.079,-3.839 23.982,3.62 30.3,13.711 1.549,2.474 -4.327,2.11 -5.449,0.318" /><path
       inkscape:connector-curvature="0"
       id="path102"
       style="fill:#000000;fill-opacity:1;fill-rule:nonzero;stroke:none"
       d="m 682.46768,933.64984 c -3.94,-17.48 3.4,-35.168 -1.42,-52.577 -4.211,-15.21 -15.344,-29.051 -15.344,-45.317 0,-0.806 5.795,-0.013 5.795,1.553 0,15.86 10.744,30.064 15.253,44.831 5.281,17.296 -2.509,35.147 1.419,52.576 0.255,1.13 -5.397,0.293 -5.703,-1.066" /><path
       inkscape:connector-curvature="0"
       id="path106"
       style="fill:#000000;fill-opacity:1;fill-rule:nonzero;stroke:none"
       d="m 651.45698,1106.7465 c 15.201,-11.729 24.591,-26.634 30.122,-44.904 3.446,-11.386 4.709,-22.954 5.539,-34.777 0.433,-6.16 0.912,-12.307 1.764,-18.426 0.758,-5.452 2.856,-10.63596 4.179,-15.95796 0.437,-1.76 6.243,-0.244 5.795,1.552 -1.328,5.346 -3.26,10.51296 -4.179,15.95896 -1.024,6.071 -1.333,12.292 -1.763,18.427 -0.832,11.856 -2.193,23.338 -5.54,34.776 -5.403,18.47 -15.218,33.714 -30.507,45.511 -1.486,1.147 -6.754,-1.123 -5.41,-2.16" /><path
       inkscape:connector-curvature="0"
       id="path110"
       style="fill:#000000;fill-opacity:1;fill-rule:nonzero;stroke:none"
       d="m 642.71378,1103.5975 c -12.842,-1.804 -22.769,8.963 -35.264,10.7 -12.757,1.773 -24.802,-1.339 -36.282,-6.784 -5.458,-2.589 -10.726,-5.554 -16.2,-8.115 -7.82,-3.658 -14.991,-4.655 -23.574,-4.52 -13.041,0.205 -23.106,-3.92 -33.054,-12.245 -19.468,-16.294 -27.4,-41.739 -30.656,-66.126 -2.032,-15.215 -4.322,-30.17896 -7.574,-45.19696 -3.302,-15.243 -6.875,-30.427 -9.333,-45.838 -0.88,-5.529 -1.546,-11.088 -2.051,-16.663 -0.242,-2.676 5.626,-1.675 5.831,0.591 2.762,30.501 11.868,59.892 16.712,90.052 2.072,12.90196 2.99,25.76696 6.349,38.44896 3.416,12.895 8.849,25.692 17.599,35.894 4.242,4.945 9.568,9.294 15.045,12.777 7.027,4.468 14.514,4.642 22.574,4.524 13.229,-0.196 23.837,4.89 35.353,10.833 13.129,6.776 26.547,11.549 41.415,7.664 6.064,-1.585 11.284,-5.155 16.886,-7.802 4.969,-2.347 10.189,-2.651 15.564,-1.895 2.982,0.419 4.638,4.26 0.66,3.701" /><path
       inkscape:connector-curvature="0"
       id="path114"
       style="fill:#000000;fill-opacity:1;fill-rule:nonzero;stroke:none"
       d="m 441.87398,969.27184 c -0.086,-9.163 -1.376,-18.324 -4.25,-27.049 -2.561,-7.778 -7.016,-14.74 -9.049,-22.726 -0.683,-2.685 5.237,-1.942 5.858,0.495 2.121,8.335 7.062,15.574 9.413,23.823 2.429,8.525 3.801,17.082 3.885,25.952 0.028,2.937 -5.834,1.98 -5.857,-0.495" /><path
       inkscape:connector-curvature="0"
       id="path118"
       style="fill:#000000;fill-opacity:1;fill-rule:nonzero;stroke:none"
       d="m 428.22598,983.18154 c -0.126,-13.803 -3.634,-26.896 -13.412,-37.029 -1.278,-1.325 4.272,-0.647 5.262,0.379 10.105,10.471 13.815,23.926 13.946,38.203 0.009,1.021 -5.78,0.181 -5.796,-1.553" /><path
       inkscape:connector-curvature="0"
       id="path122"
       style="fill:#000000;fill-opacity:1;fill-rule:nonzero;stroke:none"
       d="m 418.99218,982.69574 c -5.593,3.597 -8.523,9.997 -13.913,13.835 -5.079,3.61696 -11.005,1.865 -15.979,-0.938 -15.196,-8.561 -16.355,-29.519 -16.166,-44.94 0.214,-17.344 4.91,-34.757 17.014,-47.614 10.092,-10.72 24.413,-16.244 38.26,-20.199 1.826,-0.521 6.82,2.202 3.552,3.136 -12.207,3.486 -24.157,8.258 -33.777,16.76 -10.872,9.607 -16.229,23.352 -18.395,37.402 -1.308,8.481 -0.94,17.11 -0.021,25.607 0.815,7.526 1.807,14.869 5.998,21.339 2.215,3.418 5.456,6.065 9.085,7.851 3.146,1.549 6.216,-1.388 8.228,-3.395 3.923,-3.911 6.754,-8.587 11.5,-11.639 1.581,-1.017 6.946,1.295 4.614,2.795" /><path
       inkscape:connector-curvature="0"
       id="path126"
       style="fill:#000000;fill-opacity:1;fill-rule:nonzero;stroke:none"
       d="m 429.74558,904.14934 c 4.695,-13.758 4.808,-28.257 6.042,-42.591 1.094,-12.705 3.472,-25.64 7.692,-37.688 4.402,-12.568 12.339,-21.713 22.8,-29.759 5.601,-4.309 11.501,-8.197 17.012,-12.629 6.35,-5.104 12.308,-10.685 18.476,-16.003 1.571,-1.355 6.985,0.895 5.379,2.28 -11.16,9.622 -22.251,18.842 -34.109,27.594 -10.959,8.089 -19.002,17.207 -23.763,30.07 -4.216,11.392 -6.264,23.847 -7.522,35.889 -1.56,14.939 -1.302,30.005 -6.211,44.39 -0.705,2.065 -6.463,0.404 -5.796,-1.553" /><path
       inkscape:connector-curvature="0"
       id="path130"
       style="fill:#000000;fill-opacity:1;fill-rule:nonzero;stroke:none"
       d="m 678.61908,1071.6263 c 5.318,-1.33 12.266,-0.993 14.445,4.979 2.601,7.124 -3.383,17.237 -6.59,23.137 -5.981,11.007 -13.785,21.078 -22.383,30.153 -4.116,4.343 -8.572,8.533 -13.977,11.216 -4.935,2.448 -10.481,3.705 -15.685,5.441 -11.429,3.814 -22.389,8.969 -33.104,14.439 -9.623,4.913 -18.995,9.111 -29.806,10.462 -13.083,1.636 -26.569,1.155 -39.711,0.646 -23.016,-0.891 -45.99,-3.396 -67.847,-11.033 -21.218,-7.414 -40.837,-19.392 -56.534,-35.576 -7.666,-7.904 -12.171,-17.279 -16.004,-27.47 -4.698,-12.489 -7.95,-25.548 -10.239,-38.681 -1.072,-6.153 -1.481,-12.421 -2.077,-18.633 -0.588,-6.124 -1.946,-12.184 -1.873,-18.346 0.032,-2.696 0.424,-5.4 0.689,-8.079 0.344,-3.487 -0.079,-6.911 0.048,-10.377 0.226,-6.17996 2.869,-11.88496 3.139,-18.06296 0.087,-1.962 5.897,-0.759 5.796,1.553 -0.32,7.3 -3.379,13.74196 -2.922,21.16596 0.45,7.307 -1.591,14.394 -0.493,21.718 2.315,15.447 3.24,30.783 6.905,46.033 3.424,14.249 7.882,29.624 16.375,41.724 7.569,10.782 19.366,19.621 30.323,26.673 24.251,15.607 52.867,21.345 81.214,23.36 14.169,1.007 28.442,1.306 42.635,0.67 12.061,-0.54 22.225,-3.809 32.942,-9.178 12.873,-6.447 25.756,-12.611 39.474,-17.061 6.881,-2.233 13.345,-4.077 18.999,-8.801 10.907,-9.113 19.933,-21.292 27.141,-33.439 3.336,-5.621 6.309,-11.716 7.724,-18.131 0.456,-2.063 0.585,-4.162 0.037,-6.212 -0.673,-2.514 -3.221,-1.518 -5.12,-1.043 -1.924,0.481 -6.847,-2.415 -3.521,-3.247" /><path
       inkscape:connector-curvature="0"
       id="path134"
       style="fill:#000000;fill-opacity:1;fill-rule:nonzero;stroke:none"
       d="m 404.28808,878.69184 c 5.97,-19.507 8.159,-39.821 6.255,-60.144 -0.895,-9.561 -2.901,-18.994 -5.687,-28.174 -2.968,-9.78 -7.526,-19.015 -10.824,-28.687 -0.661,-1.938 5.139,-1.166 5.79,0.745 3.301,9.68 7.726,18.939 10.824,28.687 3.09,9.723 4.906,19.822 5.856,29.966 1.862,19.893 -0.584,40.095 -6.418,59.16 -0.611,1.995 -6.388,0.382 -5.796,-1.553" /><path
       inkscape:connector-curvature="0"
       id="path138"
       style="fill:#000000;fill-opacity:1;fill-rule:nonzero;stroke:none"
       d="m 585.12688,681.99504 c -1.835,-6.336 -1.178,-12.876 -1.076,-19.381 0.108,-7.028 -0.804,-14.101 -1.096,-21.122 -0.113,-2.706 -0.157,-5.408 0.024,-8.111 0.175,-2.632 0.86,-5.767 -0.335,-8.254 -1.226,-2.551 -4.504,-4.232 -6.732,-5.805 -2.501,-1.766 -4.581,-3.819 -6.66,-6.062 -9.418,-10.163 -15.53,-22.889 -20.969,-35.476 -2.975,-6.887 -5.708,-13.881 -8.949,-20.649 -3.46,-7.224 -7.358,-14.2 -10.265,-21.68 -1.153,-2.97 4.651,-2.629 5.491,-0.469 2.681,6.902 6.151,13.423 9.457,20.037 3.627,7.256 6.57,14.837 9.756,22.291 5.901,13.806 12.748,26.944 23.36,37.747 3.462,3.525 8.432,5.141 11.001,9.597 2.377,4.124 0.516,11.068 0.607,15.564 0.145,7.141 0.885,14.256 1.145,21.392 0.257,7.062 -0.917,14.008 1.085,20.925 0.729,2.518 -5.174,1.769 -5.844,-0.544" /><path
       inkscape:connector-curvature="0"
       id="path142"
       style="fill:#000000;fill-opacity:1;fill-rule:nonzero;stroke:none"
       d="m 390.46768,769.62344 c -7.392,0.154 -12.729,-3.572 -14.93,-10.607 -3.211,-10.265 -0.249,-20.877 3.715,-30.441 5.416,-13.066 11.224,-25.88 17.738,-38.437 6.91,-13.319 13.907,-26.267 19.59,-40.175 2.446,-5.984 5.063,-11.909 8.408,-17.448 3.526,-5.843 7.757,-11.229 11.333,-17.043 3.128,-5.088 5.8,-10.414 9.353,-15.234 3.552,-4.821 8.363,-8.597 12.61,-12.771 4.792,-4.71 9.567,-9.379 15.157,-13.148 5.458,-3.681 11.728,-6.367 17.492,-9.544 11.503,-6.34 22.278,-13.677 31.303,-23.293 0.945,-1.007 6.227,1.115 5.476,1.916 -7.909,8.427 -17.127,15.076 -27.072,20.895 -10.045,5.88 -20.788,10.323 -29.582,18.096 -8.537,7.547 -17.649,15.625 -23.583,25.409 -3.039,5.011 -5.816,10.126 -9.105,14.987 -3.498,5.167 -7.132,10.204 -10.121,15.694 -6.113,11.23 -9.712,23.66 -15.755,34.955 -6.204,11.594 -12.45,23.165 -18.07,35.058 -5.207,11.019 -11.132,22.862 -13.739,34.815 -0.912,4.186 -0.814,8.598 -0.279,12.825 0.365,2.872 2.075,11.368 6.261,11.281 1.124,-0.023 6.582,2.152 3.8,2.21" /><path
       inkscape:connector-curvature="0"
       id="path146"
       style="fill:#000000;fill-opacity:1;fill-rule:nonzero;stroke:none"
       d="m 640.92968,702.55704 c 9.753,-6.598 20.642,-11.134 31.593,-15.33 11.865,-4.546 23.62,-9.171 35.334,-14.101 12.848,-5.406 25.845,-10.548 39.142,-14.755 12.571,-3.978 23.997,-10.899 35.847,-16.539 2.582,-1.229 6.67,2.508 3.289,4.117 -11.344,5.398 -22.246,11.698 -34.105,15.949 -13.137,4.711 -26.231,9.246 -39.131,14.611 -11.278,4.69 -22.491,9.358 -33.932,13.642 -11.611,4.348 -23.29,8.919 -33.609,15.901 -2.285,1.546 -7.258,-1.58 -4.428,-3.495" /><path
       inkscape:connector-curvature="0"
       id="path150"
       style="fill:#000000;fill-opacity:1;fill-rule:nonzero;stroke:none"
       d="m 365.91158,740.76504 c 0.868,-18.275 -25.202,-25.549 -38.362,-31.247 -11.191,-4.846 -21.739,-11.333 -32.296,-17.394 -12.988,-7.457 -26.397,-14.311 -38.794,-22.74 -3.241,-2.204 1.801,-2.788 3.561,-1.591 12.923,8.786 26.928,15.926 40.467,23.7 11.406,6.549 22.778,13.078 34.923,18.162 13.759,5.759 37.17,14.258 36.297,32.663 -0.084,1.756 -5.898,0.602 -5.796,-1.553" /><path
       inkscape:connector-curvature="0"
       id="path154"
       style="fill:#000000;fill-opacity:1;fill-rule:nonzero;stroke:none"
       d="m 530.64838,487.02824 c 4.489,1.93 7.703,5.298 10.885,8.912 4.9,5.566 10.626,10.177 16.453,14.74 12.608,9.872 25.418,19.451 40.074,26.097 6.298,2.856 13.616,5.48 20.594,5.719 4.485,0.153 8.944,-0.382 13.424,0.154 9.138,1.093 6.927,10.161 6.217,16.848 -0.852,8.014 -2.243,16.477 -0.869,24.497 0.122,0.71 0.337,1.387 0.575,2.065 0.526,1.5 -1.891,0.42 -0.359,0.21 1.958,-0.268 3.862,-1.043 5.703,-1.726 4.469,-1.661 8.784,-3.74 13.105,-5.744 3.652,-1.693 7.395,-3.176 11.123,-4.695 2.832,-1.153 7.241,-2.304 9.93,-0.236 2.438,1.874 2.885,6.132 2.879,8.916 -0.01,6.139 -0.751,12.43 -1.994,18.43 -3.535,17.061 -12.175,33.468 -20.532,48.581 -8.729,15.785 -15.179,33.006 -26.452,47.252 -1.152,1.456 -6.728,-0.526 -5.399,-2.205 7.42,-9.378 12.6,-19.954 17.668,-30.712 5.111,-10.847 11.549,-21.01 16.774,-31.803 4.77,-9.858 9.051,-20.357 11.755,-30.979 1.264,-4.965 1.69,-10.041 2.175,-15.123 0.26,-2.728 1.178,-9.532 -1.476,-11.572 1.152,0.384 2.304,0.767 3.456,1.149 -3.868,0.094 -8.16,2.613 -11.699,4.075 -3.158,1.303 -6.223,2.853 -9.335,4.262 -5.205,2.356 -12.629,6.591 -18.597,4.992 -5.68,-1.522 -5.533,-8.02 -5.586,-12.833 -0.072,-6.642 0.907,-13.22 1.506,-19.817 0.169,-1.869 0.495,-3.722 0.656,-5.594 0.125,-1.449 0.019,-2.864 -0.273,-4.283 -0.305,-1.483 -0.741,-1.081 -2.307,-1.142 -3.74,-0.149 -7.505,0.357 -11.238,0.04 -11.42,-0.973 -22.088,-5.582 -32.169,-10.734 -11.722,-5.989 -22.182,-14.237 -32.561,-22.24 -5.045,-3.891 -10.054,-7.879 -14.668,-12.28 -3.803,-3.626 -6.671,-8.918 -11.667,-11.067 -3.731,-1.603 -0.285,-3.235 2.229,-2.154" /><path
       inkscape:connector-curvature="0"
       id="path158"
       style="fill:#000000;fill-opacity:1;fill-rule:nonzero;stroke:none"
       d="m 350.83588,722.89204 c -5.492,-12.675 -6.728,-26.303 -6.663,-39.984 0.069,-14.428 1.077,-28.843 1.228,-43.276 0.171,-16.36 0.964,-32.708 1.846,-49.042 0.423,-7.848 0.878,-15.694 1.312,-23.54 0.265,-4.792 -0.71,-10.378 0.986,-14.958 3.679,-9.929 16.103,3.065 19.632,5.89 4.606,3.688 11.379,5.626 16.887,7.425 6.892,2.25 14.019,3.861 21.174,4.998 6.402,1.018 12.897,1.605 19.324,2.461 2.895,0.385 6.928,0.812 9.594,-0.705 1.503,-0.855 1.846,-4.244 2.295,-5.708 2.035,-6.629 5.86,-12.645 8.393,-19.09 1.191,-3.027 2.157,-6.922 5.51,-8.153 4.818,-1.769 11.796,-0.425 16.755,-0.206 4.352,0.191 8.684,0.069 12.825,-1.396 3.99,-1.411 7.503,-4.375 10.808,-6.934 11.955,-9.26 22.587,-19.449 29.962,-32.836 1.276,-2.316 6.79,-0.131 5.301,2.572 -6.282,11.401 -15.213,21.519 -25.45,29.531 -5.057,3.959 -10.058,8.044 -15.798,10.973 -6.289,3.209 -13.989,2.556 -20.794,2.23 -3.186,-0.152 -6.396,-0.179 -9.584,-0.031 -1.768,0.083 -2.107,1.856 -2.7,3.283 -2.849,6.862 -6.302,13.468 -9.018,20.378 -1.208,3.072 -1.34,6.562 -4.047,8.766 -3.73,3.04 -11.087,1.963 -15.321,1.398 -13.115,-1.746 -26.032,-3.198 -38.767,-7.008 -5.69,-1.704 -11.268,-3.859 -16.6,-6.476 -4.809,-2.359 -8.34,-6.22 -12.518,-9.474 -3.815,-2.97 -2.748,9.384 -2.865,11.532 -0.462,8.501 -0.957,17 -1.42,25.501 -0.891,16.337 -1.629,32.682 -1.846,49.043 -0.184,13.868 -0.938,27.699 -1.207,41.562 -0.267,13.798 0.772,27.78 6.317,40.576 1.334,3.08 -4.51,3.1 -5.551,0.698" /><path
       inkscape:connector-curvature="0"
       id="path162"
       style="fill:#000000;fill-opacity:1;fill-rule:nonzero;stroke:none"
       d="m 373.96578,881.67274 c -12.686,0.555 -22.858,-7.416 -30.871,-16.478 -8.576,-9.699 -15.37,-21.702 -19.715,-33.879 -6.524,-18.284 -9.48,-38.065 -12.363,-57.182 -1.462,-9.69 -2.763,-19.402 -4.165,-29.1 -1.36,-9.407 -1.103,-19.23 -4.662,-28.181 -1.267,-3.186 4.564,-3.314 5.572,-0.778 2.898,7.289 3.468,15.072 4.195,22.809 0.832,8.848 2.358,17.662 3.61,26.459 2.606,18.311 5.503,36.606 10.211,54.512 3.442,13.09 8.794,25.104 16.551,36.227 6.559,9.403 16.997,21.737 29.684,21.182 2.931,-0.129 5.868,4.238 1.953,4.409" /><path
       inkscape:connector-curvature="0"
       id="path166"
       style="fill:#000000;fill-opacity:1;fill-rule:nonzero;stroke:none"
       d="m 377.11858,865.56334 c -8.317,0.262 -13.875,-4.482 -18.668,-10.82 -6.405,-8.471 -13.046,-16.709 -18.098,-26.095 -5.72,-10.626 -8.09,-22.858 -10.492,-34.577 -2.517,-12.284 -4.14,-24.797 -4.225,-37.348 -0.008,-1.185 5.783,-0.289 5.796,1.553 0.136,20.273 3.889,41.375 10.081,60.68 2.991,9.325 8.403,17.707 14.178,25.521 2.375,3.214 4.917,6.3 7.288,9.517 2.325,3.154 5.936,9.123 10.441,8.981 1.368,-0.043 6.677,2.494 3.699,2.588" /><path
       inkscape:connector-curvature="0"
       id="path170"
       style="fill:#000000;fill-opacity:1;fill-rule:nonzero;stroke:none"
       d="m 382.30758,857.54674 c -23.68,-12.641 -24.306,-43.878 -32.324,-66.326 -0.47,-1.316 5.172,-0.628 5.735,0.951 3.905,10.932 5.949,22.441 9.377,33.523 3.649,11.797 9.171,24.75 20.613,30.859 3.41,1.82 -1.923,1.782 -3.401,0.993" /><path
       inkscape:connector-curvature="0"
       id="path174"
       style="fill:#000000;fill-opacity:1;fill-rule:nonzero;stroke:none"
       d="m 397.34468,853.14344 c -6.584,-2.528 -8.869,-9.616 -10.323,-15.931 -1.617,-7.027 -2.085,-14.398 -2.112,-21.595 -0.005,-1.55 5.789,-0.533 5.796,1.553 0.021,5.867 0.497,11.733 1.441,17.524 0.765,4.691 2.208,14.389 7.402,16.384 3.808,1.461 0.286,3.021 -2.204,2.065" /><path
       inkscape:connector-curvature="0"
       id="path178"
       style="fill:#000000;fill-opacity:1;fill-rule:nonzero;stroke:none"
       d="m 580.72558,951.45304 c -0.456,-3.119 -5.252,-5.001 -10.711,-4.202 -5.461,0.8 -9.518,3.976 -9.061,7.096 0.457,3.119 5.252,5.001 10.711,4.202 5.461,-0.8 9.519,-3.976 9.061,-7.096" /><path
       inkscape:connector-curvature="0"
       id="path182"
       style="fill:none;stroke:#000000;stroke-width:3;stroke-linecap:butt;stroke-linejoin:miter;stroke-miterlimit:4;stroke-opacity:1;stroke-dasharray:none"
       d="m 580.72558,951.45304 c -0.456,-3.119 -5.252,-5.001 -10.711,-4.202 -5.461,0.8 -9.518,3.976 -9.061,7.096 0.457,3.119 5.252,5.001 10.711,4.202 5.461,-0.8 9.519,-3.976 9.061,-7.096 z" /></g></svg>